<svg width="64" height="64" viewBox="0 0 64 64" fill="none" xmlns="http://www.w3.org/2000/svg">
<g clip-path="url(#clip0_293_98)">
<path d="M45.2493 22.6535C45.9468 24.1724 46.7253 25.6534 47.4173 27.175C48.7489 30.1035 49.7603 33.1955 50.1804 36.3847C50.6005 39.5739 50.4178 42.8672 49.4216 45.9251C48.2952 49.377 46.1568 52.448 43.5368 54.9613C40.4373 57.9348 36.4587 60.227 32.1668 60.3962C29.3703 60.5064 26.5862 59.7069 24.1097 58.4033C22.0285 57.3079 20.1285 55.8482 18.6126 54.0502C17.0967 52.2521 15.9712 50.1112 15.45 47.8176C14.8081 44.9935 15.0986 41.9953 16.07 39.2669C16.7647 37.3157 17.7945 35.4991 18.5276 33.562C19.3288 31.4455 19.7761 29.1854 20.8376 27.1866C21.7995 25.3742 23.2425 23.8262 24.009 21.923C24.4668 20.7863 24.6654 19.5655 24.9611 18.3761C25.2567 17.1867 25.6706 15.9887 26.4756 15.0647C27.4461 13.9514 28.9056 13.3479 30.3725 13.1785C31.8393 13.009 33.3241 13.2378 34.7637 13.5662C35.9098 13.8276 37.042 14.1521 38.1496 14.5461C39.095 14.8824 40.0318 15.274 40.8493 15.8559C41.9633 16.6485 42.8116 17.7646 43.4875 18.9532C44.1634 20.1417 44.6807 21.4115 45.2514 22.6538L45.2493 22.6535Z" fill="#020204"/>
<path d="M32.9337 60.4233C34.112 60.4918 35.2881 60.6062 36.4556 60.7826C37.4823 60.9385 38.5016 61.1395 39.5105 61.385C41.0909 61.768 42.6657 62.2564 44.2913 62.3027C44.7191 62.3149 45.1482 62.2959 45.5681 62.2029C45.9879 62.1099 46.3911 61.9405 46.726 61.6737C47.2251 61.2759 47.54 60.6759 47.6593 60.0484C47.7787 59.4209 47.7039 58.7682 47.5201 58.1568C47.1527 56.9344 46.3633 55.8913 45.7127 54.7942C45.3388 54.1661 45.0057 53.5132 44.6008 52.9047C44.1959 52.2963 43.7118 51.7265 43.0969 51.3302C42.2469 50.7822 41.1929 50.6035 40.1866 50.7038C39.1804 50.804 38.2157 51.1676 37.3177 51.6327C36.0589 52.2843 34.874 53.1794 34.1878 54.4198C33.949 54.8514 33.7754 55.3152 33.5726 55.7651C33.3697 56.215 33.1321 56.6576 32.7885 57.0115C32.405 57.4061 31.9076 57.6722 31.5111 58.0533C31.3129 58.2461 31.1394 58.4657 31.0398 58.7213C30.9401 58.9768 30.9129 59.2688 31.0055 59.5278C31.0691 59.7056 31.1854 59.8616 31.329 59.9841C31.4725 60.1067 31.6422 60.1962 31.8202 60.2583C32.1758 60.3834 32.5593 60.4019 32.9357 60.4237L32.9337 60.4233Z" fill="#020204"/>
<path d="M29.4313 60.3474C28.4493 60.3701 27.4775 60.5458 26.5178 60.7446C25.5983 60.9346 24.6832 61.1462 23.7748 61.3847C22.2422 61.787 20.7077 62.2688 19.1235 62.3024C18.7066 62.311 18.2867 62.2885 17.8803 62.1945C17.474 62.1004 17.0806 61.9331 16.7546 61.673C16.2565 61.2759 15.9399 60.6769 15.8227 60.0509C15.7055 59.4249 15.7771 58.7732 15.9587 58.1627C16.3223 56.9416 17.1018 55.8962 17.7402 54.7937C18.1029 54.1671 18.423 53.5157 18.8152 52.907C19.2075 52.2984 19.6799 51.7273 20.2848 51.3295C21.1092 50.7875 22.1373 50.6039 23.1191 50.7005C24.1009 50.7971 25.0418 51.1589 25.9077 51.632C27.1301 52.2997 28.2464 53.2185 28.9531 54.4169C29.4491 55.2588 29.7351 56.2218 30.3148 57.0086C30.6269 57.4324 31.0217 57.7983 31.2788 58.2561C31.4086 58.4849 31.5037 58.737 31.5258 58.9995C31.5479 59.2619 31.4937 59.5346 31.3459 59.7525C31.2484 59.8967 31.113 60.0132 30.9618 60.0991C30.8105 60.185 30.6436 60.2416 30.4733 60.2769C30.1305 60.348 29.7814 60.3369 29.4332 60.3455L29.4313 60.3474ZM23.9441 19.4545C23.8061 17.7942 23.837 16.1247 23.777 14.4598C23.7174 12.8588 23.57 11.2588 23.6238 9.65762C23.6786 8.02948 23.9516 6.37993 24.6765 4.91675C25.4015 3.45357 26.5789 2.21576 28.0153 1.44154C29.3649 0.71317 30.9215 0.401896 32.4571 0.418606C34.5394 0.441314 36.6268 1.07029 38.3128 2.29181C39.37 3.05704 40.259 4.04356 40.9604 5.14405C41.5588 6.08344 42.0236 7.10937 42.3154 8.18608C42.9137 10.3926 42.7717 12.7166 42.8883 14.9977C42.9986 17.1597 43.3446 19.3165 43.2267 21.4781C43.201 21.9494 43.1505 22.428 42.9412 22.8491C42.7372 23.2594 42.391 23.5893 41.9932 23.8168C41.5954 24.0443 41.1476 24.1737 40.695 24.2435C39.7894 24.3832 38.8633 24.2911 37.9512 24.3757C36.6272 24.4985 35.3644 24.9895 34.0505 25.1928C32.4866 25.4349 30.8891 25.2635 29.3058 25.2001C28.6717 25.1748 28.0354 25.1669 27.406 25.0878C26.7766 25.0088 26.1485 24.8564 25.5885 24.5578C25.2457 24.374 24.9259 24.1347 24.6684 23.8402C24.4109 23.5456 24.2142 23.1975 24.1163 22.8168C23.9691 22.2484 24.0467 21.6501 24.0488 21.0629C24.051 20.526 23.9884 19.9911 23.9417 19.4562L23.9441 19.4545Z" fill="#020204"/>
<path d="M26.4359 18.8147C26.2118 19.0953 26.0657 19.4331 25.9774 19.7817C25.8892 20.1302 25.857 20.4903 25.8431 20.8494C25.8157 21.5677 25.8594 22.2997 25.6696 22.993C25.4661 23.7342 25.0106 24.376 24.5646 25.002C23.7923 26.086 23.0114 27.1978 22.6308 28.4729C22.4 29.2452 22.3231 30.0631 22.4062 30.8648C21.5418 32.1343 20.7931 33.4826 20.1733 34.888C19.2337 37.0178 18.5889 39.2854 18.3621 41.6019C18.0844 44.4387 18.4473 47.3565 19.5675 49.9775C20.3773 51.8726 21.5851 53.6074 23.1421 54.9577C23.9337 55.6443 24.8131 56.2302 25.7557 56.6923C29.0148 58.2941 33.0422 58.2969 36.2471 56.5895C37.9219 55.697 39.3358 54.3919 40.6987 53.0714C41.5197 52.2762 42.3363 51.4621 42.9625 50.5058C44.168 48.6652 44.5878 46.4278 44.8488 44.2431C45.3051 40.4228 45.3196 36.3873 43.6448 32.9237C43.0664 31.7289 42.3012 30.6339 41.3781 29.6801C41.1328 28.0134 40.6484 26.3816 39.9444 24.851C39.4367 23.7466 38.8159 22.6954 38.3442 21.5754C38.1505 21.1155 37.98 20.6446 37.7673 20.1943C37.5545 19.744 37.2874 19.3106 36.9266 18.9657C36.5575 18.6122 36.0976 18.362 35.6121 18.2018C35.1267 18.0415 34.616 17.9689 34.1061 17.9432C33.0853 17.8918 32.0624 18.0252 31.0413 17.9847C30.2284 17.9526 29.4179 17.8099 28.6056 17.8579C28.1994 17.8819 27.7937 17.9543 27.4166 18.1075C27.0396 18.2607 26.6921 18.4967 26.4384 18.8144L26.4359 18.8147Z" fill="#FDFDFB"/>
<g filter="url(#filter0_f_293_98)">
<path d="M25.9355 22.6251C26.3003 23.6829 27.0345 24.5857 27.9034 25.2909C28.1926 25.5255 28.4994 25.7416 28.8387 25.8944C29.178 26.0471 29.5525 26.1343 29.9231 26.1026C30.2862 26.0718 30.6316 25.9291 30.9493 25.75C31.267 25.5709 31.5611 25.3543 31.8689 25.1594C32.3966 24.8252 32.9615 24.5553 33.5093 24.2553C34.1695 23.8939 34.8097 23.4841 35.3656 22.9785C35.6201 22.7461 35.8574 22.4927 36.1385 22.293C36.4196 22.0933 36.7561 21.949 37.1 21.9723C37.3579 21.9899 37.5998 22.0996 37.8523 22.154C37.9809 22.1812 38.1094 22.1947 38.2373 22.175C38.3652 22.1553 38.4901 22.1013 38.5796 22.0079C38.6893 21.8937 38.7373 21.7294 38.7296 21.5708C38.7219 21.4123 38.6688 21.2596 38.5946 21.1195C38.4468 20.8393 38.2229 20.5978 38.1233 20.2973C38.0346 20.0295 38.0526 19.7403 38.0603 19.4588C38.0681 19.1773 38.0621 18.8825 37.9318 18.6325C37.8328 18.4418 37.667 18.2908 37.4772 18.1903C37.2874 18.0899 37.0745 18.0404 36.8611 18.0181C36.4337 17.978 36.0055 18.0609 35.577 18.0851C35.008 18.1173 34.4369 18.0462 33.8681 18.0804C33.159 18.1233 32.4634 18.3289 31.7528 18.3302C30.9418 18.3317 30.1316 18.0663 29.3303 18.1931C28.9865 18.2475 28.6587 18.3726 28.3286 18.4827C27.9985 18.5929 27.6574 18.6899 27.3095 18.685C26.9145 18.6792 26.5319 18.5425 26.1377 18.5142C25.9406 18.5001 25.7388 18.5142 25.5537 18.5834C25.3686 18.6526 25.2013 18.7814 25.1107 18.9568C25.0586 19.0575 25.0329 19.1704 25.028 19.2835C25.0231 19.3966 25.0387 19.51 25.0661 19.6199C25.1208 19.8397 25.2212 20.0447 25.3018 20.2555C25.6002 21.0169 25.6643 21.8511 25.931 22.624L25.9355 22.6251Z" fill="black" fill-opacity="0.26"/>
</g>
<g opacity="0.3" filter="url(#filter1_f_293_98)">
<path d="M24.9183 19.6102C25.6269 20.0483 26.263 20.5858 26.797 21.1991C27.2926 21.7682 27.7139 22.4134 28.3609 22.8349C28.8179 23.1325 29.3667 23.3002 29.9235 23.3511C30.5773 23.4109 31.2388 23.3142 31.8691 23.1435C32.4533 22.9853 33.018 22.7627 33.5362 22.4687C34.5213 21.9091 35.3443 21.0888 36.4283 20.721C36.6655 20.6406 36.9125 20.5832 37.141 20.4842C37.3696 20.3851 37.5845 20.2367 37.6938 20.0268C37.8009 19.8251 37.7944 19.5922 37.8287 19.3707C37.8651 19.1339 37.9474 18.9046 37.9924 18.669C38.0374 18.4333 38.0427 18.1812 37.9324 17.9645C37.8407 17.7849 37.6743 17.6433 37.4825 17.5531C37.2908 17.4629 37.0755 17.4221 36.8604 17.4122C36.4307 17.3925 36.0061 17.4941 35.5776 17.5302C35.0099 17.5779 34.4383 17.5105 33.8687 17.5262C33.16 17.546 32.4617 17.694 31.7534 17.7246C30.9454 17.7597 30.1394 17.6421 29.3309 17.616C28.9813 17.6046 28.6293 17.6101 28.2846 17.6659C27.94 17.7218 27.6017 17.8281 27.3099 18.0065C27.0271 18.1796 26.7964 18.4144 26.5372 18.6163C26.4076 18.7173 26.2698 18.8106 26.1186 18.8817C25.9673 18.9527 25.8015 19.0011 25.6323 19.0086C25.5451 19.0125 25.4571 19.0056 25.3709 19.0178C25.2987 19.029 25.2296 19.0533 25.1676 19.0892C25.1055 19.1251 25.0519 19.172 25.0096 19.2271C24.9674 19.2822 24.9374 19.3445 24.9214 19.4104C24.9055 19.4762 24.9038 19.5444 24.9166 19.6108L24.9183 19.6102Z" fill="black"/>
</g>
<path d="M26.7632 9.93467C26.3819 9.95545 26.0166 10.1318 25.7375 10.3925C25.4583 10.6532 25.2619 10.9949 25.1406 11.3574C24.8986 12.0823 24.9532 12.8681 25.0078 13.6282C25.0577 14.3184 25.1085 15.0217 25.3671 15.6638C25.4963 15.9847 25.6777 16.285 25.9198 16.5344C26.1619 16.7838 26.4665 16.9718 26.802 17.0558C27.1169 17.1347 27.4528 17.1184 27.7624 17.0211C28.0719 16.9239 28.3545 16.7469 28.5863 16.5203C28.9248 16.1893 29.1525 15.7563 29.2832 15.3013C29.4138 14.8463 29.4511 14.369 29.4443 13.896C29.4357 13.3038 29.3586 12.7091 29.1731 12.147C28.9875 11.5849 28.6919 11.0538 28.2791 10.629C28.0792 10.4233 27.8511 10.2423 27.5936 10.1155C27.336 9.98866 27.0488 9.91732 26.7623 9.93274L26.7632 9.93467Z" fill="url(#paint0_radial_293_98)"/>
<path d="M33.5152 9.93466C32.9197 10.3417 32.4205 10.9148 32.1763 11.5949C31.8687 12.4523 31.9865 13.4116 32.2834 14.2728C32.5876 15.1548 33.0962 15.9952 33.8644 16.5247C34.2485 16.7895 34.693 16.971 35.1562 17.026C35.6194 17.0811 36.1009 17.0057 36.5144 16.7904C37.0185 16.5277 37.403 16.0678 37.6417 15.5522C37.8803 15.0365 37.9823 14.466 38.014 13.8983C38.0569 13.1753 37.984 12.4403 37.7462 11.756C37.4881 11.0127 37.0178 10.3271 36.3595 9.89932C36.0296 9.68552 35.6543 9.53856 35.2648 9.48479C34.8754 9.43101 34.4711 9.47129 34.1046 9.61375C33.8957 9.69516 33.7003 9.80805 33.5154 9.93509L33.5152 9.93466Z" fill="url(#paint1_radial_293_98)"/>
<g opacity="0.3" filter="url(#filter2_f_293_98)">
<path d="M26.6363 16.1025L25.536 17.1062C25.3424 17.3011 25.1483 17.5098 25.0615 17.7703C24.9844 18.0017 24.999 18.253 24.9608 18.4944C24.948 18.5771 24.9287 18.6593 24.9283 18.7429C24.9276 18.7848 24.9332 18.8265 24.945 18.8667C24.9572 18.9068 24.9771 18.9445 25.006 18.9751C25.0536 19.0259 25.1213 19.0535 25.1894 19.0672C25.2575 19.0809 25.3276 19.0827 25.3968 19.0902C25.7087 19.1238 25.9962 19.275 26.2546 19.4533L27.0151 20.0071C27.5999 20.3785 28.2989 20.5437 28.9915 20.57C29.6841 20.5964 30.375 20.4908 31.0546 20.3547C31.5944 20.2468 32.133 20.1191 32.6452 19.9169C33.4299 19.6075 34.1371 19.1313 34.8128 18.6268C35.1197 18.3976 35.4225 18.1613 35.6982 17.8952C35.7918 17.8048 35.8824 17.711 35.9827 17.6283C36.0829 17.5456 36.1943 17.4736 36.3181 17.4337C36.5067 17.3731 36.7115 17.3905 36.9068 17.423C37.054 17.4477 37.2016 17.4809 37.3507 17.4744C37.4253 17.4714 37.5 17.4586 37.5692 17.4307C37.6384 17.4029 37.7025 17.36 37.7498 17.3022C37.8116 17.2249 37.845 17.1287 37.8445 17.0297C37.8449 16.9316 37.8145 16.8348 37.7653 16.7501C37.6656 16.5809 37.4936 16.4667 37.3143 16.387C37.0688 16.2778 36.8032 16.2242 36.5418 16.1608C35.7395 15.9671 34.9597 15.6809 34.2204 15.3137C33.8528 15.1312 33.4955 14.929 33.1339 14.7353C32.762 14.5361 32.383 14.3446 31.9792 14.2223C31.0766 13.9487 30.0897 14.0384 29.1991 14.3478C28.2094 14.6914 27.3146 15.3039 26.6357 16.1019L26.6363 16.1025Z" fill="black"/>
</g>
<path d="M28.5559 14.9689C28.9344 14.5432 29.1934 14.0241 29.5572 13.5856C29.7393 13.3664 29.9488 13.1668 30.196 13.025C30.4432 12.8831 30.7299 12.8022 31.0137 12.8266C31.3295 12.854 31.6253 13.0112 31.8565 13.2283C32.0876 13.4453 32.2592 13.721 32.3963 14.0048C32.5274 14.2786 32.6316 14.5704 32.8205 14.8082C33.0219 15.0618 33.3047 15.2349 33.5596 15.4344C33.6873 15.534 33.8096 15.6422 33.9105 15.7686C34.0114 15.895 34.0905 16.0419 34.1226 16.2007C34.1542 16.3631 34.1405 16.5311 34.083 16.6863C34.0268 16.8406 33.9315 16.9802 33.813 17.0942C33.5761 17.3224 33.253 17.4456 32.9274 17.4916C32.2762 17.5837 31.6174 17.3896 30.9599 17.4081C30.2943 17.4263 29.6442 17.6617 28.9788 17.6373C28.6461 17.6251 28.3087 17.5439 28.0353 17.3539C27.8975 17.2594 27.781 17.1371 27.6934 16.9948C27.6073 16.8524 27.5548 16.6885 27.5492 16.5222C27.5439 16.3637 27.5809 16.2052 27.6443 16.0595C27.7077 15.9138 27.7971 15.7806 27.8976 15.6576C28.0989 15.4117 28.3446 15.2064 28.5557 14.9691L28.5559 14.9689Z" fill="url(#paint2_radial_293_98)"/>
<g filter="url(#filter3_f_293_98)">
<path d="M35.9772 3.18358C35.428 3.57111 35.6679 4.05491 35.9041 4.54069C36.1403 5.02646 35.3848 6.42652 35.3766 6.48675C35.3685 6.54697 36.8638 5.77709 37.2713 5.27675C37.7527 4.68607 38.9688 6.07601 38.9029 5.86423C38.9034 5.48582 36.5266 2.79605 35.9774 3.18358H35.9772Z" fill="#7C7C7C"/>
</g>
<path d="M34.8888 11.7333C34.665 11.7493 34.4467 11.8258 34.2569 11.9475C34.067 12.0692 33.9049 12.2292 33.7776 12.4145C33.5233 12.7847 33.4113 13.2386 33.3935 13.687C33.38 14.0238 33.4171 14.365 33.5289 14.6832C33.6407 15.0013 33.8288 15.2959 34.0887 15.5107C34.3543 15.7308 34.6919 15.8629 35.0366 15.8792C35.3813 15.8955 35.7307 15.7963 36.0135 15.5992C36.2391 15.4422 36.421 15.226 36.5506 14.9837C36.6802 14.7414 36.7584 14.4732 36.7937 14.2007C36.8567 13.7194 36.7856 13.2168 36.563 12.7853C36.3404 12.3539 35.9632 11.9985 35.5075 11.8307C35.3104 11.7579 35.0983 11.7202 34.8888 11.7352V11.7333Z" fill="#020204"/>
<g filter="url(#filter4_f_293_98)">
<path d="M35.4231 13.2019C35.2375 13.2751 34.9438 13.2291 34.8627 13.4112C34.8144 13.5191 34.8826 13.6967 34.9918 13.7411C35.2129 13.8311 35.5557 13.6682 35.6452 13.4465C35.6838 13.3501 35.6253 13.198 35.5295 13.1573C35.4942 13.1423 35.4588 13.1873 35.4233 13.2014L35.4231 13.2019Z" fill="#141413"/>
</g>
<g filter="url(#filter5_f_293_98)">
<path d="M36.2733 13.6837C36.5218 13.4352 36.0964 12.7754 35.7646 12.5055C35.5242 12.3099 34.8241 12.1049 34.8541 12.318C34.8841 12.5312 35.1968 12.8035 35.41 13.0115C35.6697 13.2675 36.1555 13.802 36.2733 13.6837Z" fill="url(#paint3_linear_293_98)"/>
</g>
<mask id="mask0_293_98" style="mask-type:luminance" maskUnits="userSpaceOnUse" x="31" y="9" width="8" height="8">
<path d="M33.5153 9.93468C32.9696 10.3903 32.3996 10.9201 32.1763 11.5949C31.8957 12.4433 31.8265 13.5052 32.2835 14.2728C33.1232 15.6828 34.9365 17.2399 36.5145 16.79C37.5588 16.4922 37.8228 14.969 38.0141 13.8979C38.1405 13.1894 38.1417 12.357 37.7463 11.7556C36.9725 10.5789 35.5125 9.63604 34.1044 9.61334C33.8807 9.60969 33.6867 9.79114 33.5153 9.93468Z" fill="white"/>
</mask>
<g mask="url(#mask0_293_98)">
<path d="M31.2659 12.1037C31.7785 11.6784 32.3697 11.3582 33.0059 11.1611C34.3096 10.7583 35.7908 10.9175 36.9429 11.6484C37.3408 11.9008 37.6953 12.2144 38.0655 12.5062C38.4357 12.798 38.8281 13.0718 39.2729 13.2282C39.5128 13.3126 39.7695 13.3616 40.0227 13.3353C40.2515 13.3113 40.4726 13.2256 40.6619 13.0953C40.8513 12.9651 41.0101 12.7916 41.129 12.5947C41.3672 12.2011 41.4439 11.7238 41.4027 11.2658C41.3207 10.3496 40.8038 9.54065 40.3706 8.72937C40.235 8.47529 40.1058 8.21672 39.9421 7.97957C39.4402 7.25205 38.6411 6.77218 37.8031 6.49111C36.965 6.21005 36.0794 6.1085 35.2023 5.99796C34.8112 5.94869 34.4155 5.89727 34.0241 5.9444C33.5742 5.9986 33.1509 6.18005 32.7119 6.29252C32.5035 6.34608 32.2912 6.38357 32.0847 6.44334C31.8782 6.50311 31.6749 6.58687 31.5069 6.72098C31.2616 6.91721 31.1074 7.21156 31.0405 7.51855C30.9737 7.82554 30.9891 8.14495 31.038 8.45516C31.1361 9.07556 31.3679 9.6814 31.346 10.3091C31.331 10.7401 31.1956 11.1634 31.2121 11.5945C31.2171 11.723 31.235 11.8466 31.2657 11.9694" fill="url(#paint4_linear_293_98)"/>
</g>
<g filter="url(#filter6_f_293_98)">
<path d="M35.5838 8.16992C35.4816 8.29846 35.3893 8.43814 35.316 8.59195C35.7758 8.69092 36.2158 8.8803 36.6078 9.14102C37.3673 9.64531 37.944 10.3827 38.3484 11.203C38.4427 11.0984 38.5288 10.9862 38.6029 10.8615C38.1963 10.0071 37.6081 9.23442 36.8223 8.71277C36.4448 8.46213 36.0243 8.27275 35.584 8.17078L35.5838 8.16992Z" fill="url(#paint5_linear_293_98)"/>
</g>
<g filter="url(#filter7_f_293_98)">
<path d="M26.7199 8.58859C26.6681 8.58752 26.6177 8.59223 26.5657 8.59459L26.465 8.60059C26.7677 8.62801 27.0687 8.70942 27.342 8.83196C27.7148 8.99905 28.0434 9.23749 28.3328 9.50892C28.8692 10.0113 29.2679 10.6315 29.5379 11.2892C29.4719 10.7922 29.3226 10.3099 29.0961 9.86261C28.9903 9.7405 28.8806 9.62053 28.7615 9.50913C28.4723 9.23792 28.1432 8.9997 27.7707 8.83217C27.4451 8.68585 27.0822 8.59481 26.7197 8.58838L26.7199 8.58859Z" fill="url(#paint6_linear_293_98)"/>
</g>
<path d="M25.8437 13.0945C25.764 13.5757 25.761 14.0804 25.9264 14.5391C26.0335 14.842 26.2156 15.1169 26.4345 15.3531C26.5781 15.5078 26.7404 15.6484 26.9307 15.7394C27.1209 15.8304 27.3411 15.8692 27.5455 15.818C27.734 15.7709 27.8994 15.6488 28.0211 15.4973C28.1428 15.3459 28.2242 15.1646 28.282 14.9789C28.4528 14.4305 28.4256 13.8302 28.2559 13.2813C28.1323 12.8814 27.9277 12.4956 27.6074 12.2258C27.4547 12.0973 27.2758 11.9966 27.0815 11.9501C26.8872 11.9036 26.6766 11.9148 26.4949 11.9973C26.2931 12.089 26.1368 12.2636 26.0344 12.46C25.932 12.6564 25.8795 12.8756 25.8433 13.0941L25.8437 13.0945Z" fill="#020204"/>
<g filter="url(#filter8_f_293_98)">
<path d="M26.8609 12.7465C26.9127 12.8824 27.0867 12.9316 27.1822 13.0411C27.275 13.1476 27.3722 13.2575 27.4232 13.3892C27.5207 13.6412 27.3268 14.0148 27.5303 14.1926C27.5942 14.2483 27.7221 14.2496 27.7848 14.1926C28.0301 13.9694 27.9755 13.519 27.8787 13.2018C27.7908 12.9139 27.573 12.6414 27.3045 12.5045C27.1803 12.4413 26.9939 12.3888 26.8876 12.4788C26.8191 12.5366 26.8289 12.663 26.8609 12.7465Z" fill="url(#paint7_linear_293_98)"/>
</g>
<path d="M24.9466 19.076C24.9594 19.1392 24.9836 19.2003 25.0166 19.256C25.0736 19.3513 25.1567 19.4286 25.2465 19.4938C25.3362 19.5589 25.4335 19.6137 25.5276 19.6726C26.0276 19.9869 26.4348 20.4289 26.7969 20.8952C27.2825 21.5212 27.712 22.2159 28.3607 22.6712C28.8187 22.9925 29.3667 23.1757 29.9233 23.2316C30.5767 23.2974 31.2387 23.1918 31.8689 23.0062C32.4529 22.8342 33.0178 22.5928 33.536 22.2736C34.5215 21.666 35.3441 20.7755 36.4281 20.3762C36.6653 20.289 36.9123 20.2266 37.1406 20.1191C37.369 20.0115 37.5841 19.8504 37.6933 19.6225C37.8005 19.4036 37.794 19.1508 37.8283 18.9102C37.8647 18.6531 37.947 18.4042 37.992 18.1484C38.037 17.8926 38.0423 17.6188 37.932 17.3836C37.8403 17.1887 37.6739 17.0348 37.4821 16.9369C37.2904 16.839 37.0751 16.7947 36.86 16.784C36.4303 16.7626 36.0057 16.8729 35.5772 16.9121C35.0095 16.9639 34.4379 16.8911 33.8683 16.9078C33.1596 16.9292 32.4613 17.0888 31.753 17.1231C30.945 17.1623 30.1388 17.0374 29.3305 17.0053C28.9805 16.9911 28.6279 16.9946 28.2825 17.0535C27.9372 17.1124 27.5981 17.23 27.3099 17.429C27.0293 17.6231 26.8052 17.8875 26.5473 18.1111C26.4183 18.223 26.2795 18.3254 26.1261 18.3997C25.9727 18.474 25.8033 18.5205 25.6325 18.5169C25.5468 18.5147 25.4547 18.5004 25.3712 18.5269C25.3189 18.5434 25.2726 18.5756 25.2332 18.6139C25.1938 18.6523 25.1614 18.6968 25.1308 18.7425C25.0596 18.8483 24.9974 18.9599 24.9451 19.0762L24.9466 19.076Z" fill="url(#paint8_radial_293_98)"/>
<g filter="url(#filter9_f_293_98)">
<path d="M28.1182 19.9468C28.0381 20.2926 28.089 20.6557 28.2609 20.9661C28.4328 21.2766 28.7137 21.5123 29.0492 21.6279C29.473 21.7693 29.9505 21.6999 30.3464 21.4933C30.5756 21.3734 30.7856 21.205 30.9184 20.9826C30.9856 20.8715 31.0296 20.7479 31.048 20.6193C31.0651 20.4908 31.0533 20.3579 31.0084 20.2369C30.9591 20.1041 30.8712 19.9867 30.7628 19.895C30.6545 19.8033 30.5261 19.7369 30.3916 19.6923C30.1221 19.6032 29.8325 19.6015 29.5488 19.6152C29.119 19.6358 28.6915 19.6898 28.2701 19.7765" fill="#D9B30D"/>
</g>
<g filter="url(#filter10_f_293_98)">
<path d="M26.7277 17.2867L25.8926 17.8357C25.7519 17.9356 25.6069 18.0435 25.5327 18.1991C25.48 18.3094 25.468 18.4347 25.4685 18.5568C25.4689 18.6789 25.4749 18.8019 25.4586 18.921C25.4479 19.0037 25.4256 19.0851 25.4218 19.1684C25.4196 19.2102 25.4228 19.252 25.4338 19.2927C25.4442 19.3333 25.4644 19.3707 25.4927 19.4017C25.5297 19.4409 25.5801 19.4652 25.6319 19.481C25.6838 19.4969 25.7369 19.5046 25.7896 19.5174C26.0413 19.5766 26.2603 19.731 26.4524 19.9039L27.018 20.4343C27.5615 20.8765 28.2819 21.0599 28.9803 21.0712C29.6787 21.0826 30.3736 20.9363 31.0572 20.782L32.6479 20.3441C33.4412 20.0517 34.1775 19.6089 34.8155 19.054C35.1047 18.8025 35.3761 18.5262 35.7009 18.3225C35.9879 18.1421 36.3099 18.023 36.6019 17.8505C36.628 17.8351 36.654 17.8192 36.6773 17.7997C36.7007 17.7802 36.7214 17.7573 36.7351 17.7301C36.7587 17.683 36.7587 17.6273 36.7437 17.5767C36.7287 17.5262 36.6996 17.4816 36.6666 17.4409C36.6302 17.3959 36.5888 17.3548 36.5445 17.3171C36.2394 17.0557 35.8253 16.961 35.4249 16.9293C35.0245 16.8976 34.6194 16.9201 34.2253 16.8539C33.8525 16.7897 33.4984 16.6526 33.1387 16.5375C32.7614 16.4155 32.3755 16.3217 31.9842 16.2569C31.0641 16.1069 30.1168 16.1356 29.2042 16.3254C28.3348 16.5064 27.4968 16.8331 26.732 17.2852L26.7277 17.2867Z" fill="#604405"/>
</g>
<path d="M26.6364 16.3171C26.2229 16.5956 25.851 16.9347 25.5361 17.3208C25.3562 17.5414 25.1925 17.7813 25.1019 18.0517C25.0305 18.2642 25.0063 18.4892 24.9613 18.7087C24.9442 18.791 24.9249 18.8737 24.9249 18.9572C24.9251 18.9992 24.9305 19.0414 24.9434 19.0815C24.9562 19.1216 24.9772 19.159 25.0063 19.1893C25.0545 19.2394 25.122 19.2664 25.1901 19.2805C25.2583 19.2947 25.3281 19.2966 25.3971 19.3045C25.7088 19.3399 25.9956 19.4913 26.254 19.6691L27.0154 20.2214C27.6011 20.592 28.2997 20.7565 28.992 20.7833C29.6844 20.8101 30.3753 20.7049 31.0551 20.5691C31.5949 20.4613 32.1335 20.3334 32.6457 20.1312C33.4302 19.8219 34.1376 19.3456 34.8133 18.8411C35.1203 18.6119 35.423 18.3756 35.6987 18.1095C35.7923 18.0191 35.8829 17.9253 35.9832 17.8426C36.0834 17.7599 36.1948 17.6879 36.3186 17.6481C36.5072 17.5875 36.712 17.6048 36.9073 17.6374C37.0545 17.662 37.2021 17.6952 37.3512 17.6888C37.4258 17.6858 37.5005 17.6729 37.5697 17.6451C37.6389 17.6172 37.703 17.5744 37.7503 17.5166C37.8121 17.4392 37.8455 17.3431 37.845 17.2441C37.8454 17.1459 37.815 17.0491 37.7658 16.9645C37.6661 16.7953 37.4941 16.6811 37.3148 16.6014C37.0693 16.4921 36.8037 16.4386 36.5423 16.3752C35.74 16.1815 34.9602 15.8953 34.2209 15.5281C33.8533 15.3456 33.496 15.1433 33.1344 14.9497C32.7625 14.7504 32.3835 14.5589 31.9797 14.4366C31.0771 14.163 30.0902 14.2528 29.1996 14.5621C28.2099 14.9058 27.3151 15.5182 26.6362 16.3162L26.6364 16.3171Z" fill="url(#paint9_linear_293_98)"/>
<g filter="url(#filter11_f_293_98)">
<path d="M32.9775 16.5154C32.9291 16.4541 32.8597 16.4108 32.7847 16.389C32.7097 16.3671 32.6294 16.3675 32.5525 16.3783C32.3982 16.4046 32.2602 16.4854 32.1313 16.5764C31.765 16.8284 31.4415 17.1394 31.1593 17.4826C30.7855 17.9368 30.477 18.4621 30.3735 19.0411C30.3564 19.1386 30.3446 19.2382 30.3568 19.3367C30.369 19.4353 30.4067 19.5328 30.4768 19.603C30.5381 19.6647 30.6216 19.7024 30.7077 19.7149C30.7939 19.7273 30.8825 19.7153 30.9648 19.6874C31.1298 19.6317 31.2669 19.5161 31.3963 19.4004C32.1109 18.7609 32.7573 17.9933 33.0158 17.0696C33.0415 16.9768 33.0638 16.8819 33.063 16.7857C33.0621 16.6895 33.037 16.5908 32.9775 16.5154Z" fill="#F6DA4A"/>
</g>
<g opacity="0.8" filter="url(#filter12_f_293_98)">
<path d="M31.2659 15.1913C31.3151 15.3503 31.5718 15.3241 31.72 15.4002C31.8501 15.467 31.9544 15.6138 32.1007 15.6181C32.24 15.6223 32.4572 15.5699 32.4756 15.4317C32.4996 15.2489 32.2327 15.1328 32.0611 15.0658C31.8404 14.9797 31.557 14.936 31.3498 15.0512C31.3023 15.0776 31.2504 15.1395 31.2667 15.1915L31.2659 15.1913Z" fill="url(#paint10_radial_293_98)"/>
</g>
<g opacity="0.8" filter="url(#filter13_f_293_98)">
<path d="M28.8188 15.0994C28.6285 15.0372 28.3138 15.3729 28.4164 15.545C28.4447 15.5921 28.531 15.6521 28.5891 15.6199C28.6769 15.5717 28.7485 15.3993 28.8434 15.3318C28.9068 15.2868 28.8927 15.1236 28.8185 15.0996L28.8188 15.0994Z" fill="url(#paint11_radial_293_98)"/>
</g>
<g filter="url(#filter14_f_293_98)">
<path d="M37.2074 18.3648C37.5455 18.3648 37.8575 18.0259 37.9044 17.6077C37.9513 17.1896 37.7152 16.8506 37.3771 16.8506C37.0391 16.8506 36.727 17.1896 36.6801 17.6077C36.6333 18.0259 36.8693 18.3648 37.2074 18.3648Z" fill="url(#paint12_linear_293_98)"/>
</g>
<mask id="mask1_293_98" style="mask-type:luminance" maskUnits="userSpaceOnUse" x="25" y="9" width="5" height="9">
<path d="M26.7632 9.93466C25.9509 10.9608 24.9384 12.439 25.008 13.6301C25.0777 14.8212 25.835 16.6154 26.8022 17.0577C27.7694 17.5001 28.0349 17.0605 28.5867 16.5222C29.1386 15.9838 29.4136 14.948 29.4449 13.8979C29.4762 12.8477 28.7947 11.3443 28.2795 10.6309C27.7643 9.91752 27.5754 8.9085 26.7628 9.93466H26.7632Z" fill="white"/>
</mask>
<g mask="url(#mask1_293_98)">
<path d="M25.9406 11.4694C26.5158 11.1266 27.2163 11.0474 27.883 11.1104C28.5497 11.1733 29.1952 11.3691 29.841 11.5452C30.3149 11.6742 30.7948 11.7937 31.2389 12.0033C31.683 12.2128 32.0958 12.5208 32.3404 12.9465L32.4561 13.1526C32.4977 13.2194 32.5467 13.2833 32.6095 13.3304C32.6723 13.3775 32.7503 13.4084 32.8289 13.4041C32.8683 13.402 32.9073 13.3912 32.9411 13.3711C32.975 13.351 33.0039 13.3218 33.0221 13.2871C33.0431 13.2471 33.0495 13.2006 33.0472 13.1552C33.0436 13.11 33.0352 13.0653 33.0221 13.0219C32.8604 12.4321 32.4791 11.9319 32.1888 11.3938L31.6965 10.4092C31.0928 9.30377 30.1018 8.43486 28.9758 7.87123C27.8498 7.3076 26.5921 7.0366 25.3345 6.9629C23.8778 6.87764 22.4168 7.05074 20.9793 7.30353C20.3559 7.41321 19.7239 7.54239 19.1721 7.85238C18.8964 8.00726 18.6436 8.20735 18.4463 8.45436C18.249 8.70136 18.1086 8.99743 18.0632 9.31063C18.0195 9.61269 18.0654 9.92332 18.1703 10.2095C18.2753 10.4957 18.4398 10.7575 18.6324 10.994C19.0174 11.467 19.5108 11.8368 19.9654 12.243C20.4199 12.6492 20.8437 13.0982 21.3499 13.4347C21.604 13.6029 21.8797 13.7421 22.1732 13.824C22.4667 13.9058 22.7795 13.929 23.0781 13.8677C23.3876 13.8043 23.6743 13.6524 23.9251 13.4602C24.176 13.2681 24.3934 13.0361 24.5995 12.7965C25.0119 12.3175 25.3971 11.7927 25.94 11.4692L25.9406 11.4694Z" fill="url(#paint13_radial_293_98)"/>
</g>
<path d="M46.23 32.0188C47.5336 33.0674 48.3608 34.6508 48.6165 36.304C48.8162 37.5936 48.6864 38.9165 48.3959 40.1883C48.1054 41.4602 47.6564 42.6897 47.2108 43.9159C47.033 44.405 46.8547 44.8986 46.784 45.414C46.7133 45.9294 46.7583 46.4753 47.0068 46.9324C47.2918 47.4565 47.8237 47.8172 48.3955 47.9871C48.9599 48.1548 49.5694 48.1512 50.141 48.0089C50.7125 47.8667 51.2458 47.5884 51.7108 47.227C52.8925 46.3095 53.6055 44.8812 53.8814 43.4112C54.1573 41.9411 54.0305 40.4227 53.7743 38.9488C53.4245 36.9394 52.8355 34.9749 52.0862 33.0773C51.535 31.6816 50.8899 30.3094 49.9889 29.1097C49.1069 27.9358 47.9951 26.9475 47.1311 25.7603C46.5306 24.9355 46.0497 24.0143 45.3303 23.2911C44.9704 22.9295 44.5505 22.6201 44.0749 22.4353C43.5993 22.2504 43.0652 22.1962 42.5742 22.3346C41.9273 22.5167 41.396 23.0265 41.1168 23.6375C40.8377 24.2485 40.7863 24.9492 40.8958 25.6127C41.0372 26.4685 41.4283 27.2629 41.8696 28.0099C42.3682 28.8533 42.9455 29.6652 43.6983 30.2923C44.4839 30.9468 45.434 31.3784 46.2305 32.019L46.23 32.0188Z" fill="#020204"/>
<mask id="mask2_293_98" style="mask-type:luminance" maskUnits="userSpaceOnUse" x="40" y="22" width="15" height="27">
<path d="M46.2299 32.0192C47.542 33.0738 48.3623 34.6578 48.6166 36.3044C49.0146 38.8815 48.1049 41.4619 47.2107 43.9165C47.0325 44.4061 46.853 44.902 46.7821 45.4151C46.7113 45.9281 46.756 46.4751 47.0068 46.9331C47.291 47.4526 47.8207 47.8168 48.3954 47.9877C48.9603 48.1557 49.5719 48.1505 50.1435 48.0074C50.7151 47.8643 51.2471 47.5858 51.711 47.2276C52.9062 46.3065 53.6211 44.8741 53.892 43.405C54.1629 41.9358 54.0316 40.4208 53.772 38.9495C53.418 36.9421 52.832 34.9777 52.0839 33.0779C51.5348 31.6839 50.8914 30.3122 49.9862 29.1104C49.1038 27.9386 47.988 26.9467 47.1285 25.7609C46.5326 24.9374 46.0598 24.0193 45.3418 23.2956C44.9828 22.9336 44.5617 22.624 44.0834 22.4387C43.6051 22.2534 43.0662 22.1979 42.5713 22.3354C42.243 22.4267 41.9405 22.6004 41.6906 22.8282C41.4407 23.0559 41.2428 23.3372 41.1033 23.6429C40.8241 24.2541 40.7811 24.9522 40.8928 25.6133C41.0367 26.4666 41.4258 27.2614 41.8668 28.0105C42.3628 28.8529 42.9394 29.6644 43.6954 30.2929C44.4805 30.9457 45.4319 31.3799 46.2275 32.0196" fill="white"/>
</mask>
<g mask="url(#mask2_293_98)">
<g filter="url(#filter15_f_293_98)">
<path d="M43.1619 29.9985L43.489 30.2931C44.2888 30.9476 44.7147 31.6824 45.5256 32.3233C46.8528 33.372 48.1995 35.182 48.4599 36.835C48.6632 38.1246 48.3945 38.8252 48.0663 40.3457C47.738 41.8663 46.8078 44.0193 46.3053 45.4855C46.1047 46.0703 46.711 45.8289 46.6316 46.4452C46.5917 46.748 46.5892 47.0543 46.624 47.3576L46.6392 47.1815C46.7359 46.3411 46.9932 45.5331 47.2739 44.7404C47.8135 43.2147 48.4329 41.7198 48.8599 40.1542C49.287 38.5887 49.2394 37.4627 49.017 36.1173C48.7367 34.4258 47.7526 32.8638 46.359 31.8328C45.3732 31.1037 44.2114 30.6363 43.1625 29.9985H43.1619Z" fill="#838384"/>
</g>
</g>
<g opacity="0.25" filter="url(#filter16_f_293_98)">
<path d="M22.8395 29.0506C23.0571 29.3771 22.7043 30.5026 27.7763 29.7822C27.7763 29.7822 26.8856 29.8801 26.0075 30.0829C24.6425 30.5399 23.453 31.0506 22.5356 31.7271C21.6266 32.396 20.9612 33.2689 20.1271 34.0187C20.1271 34.0187 21.4777 31.5508 21.8143 30.8081C22.1508 30.0654 21.7579 30.1012 22.0245 29.0056C22.2911 27.91 22.9427 26.8618 22.9427 26.8618C22.9427 26.8618 22.4105 28.4064 22.8395 29.0504V29.0506Z" fill="url(#paint14_radial_293_98)"/>
</g>
<g opacity="0.42" filter="url(#filter17_f_293_98)">
<path d="M39.1494 28.7556C38.1158 29.4754 37.5102 29.3904 36.2559 29.5311C35.0016 29.6718 31.6075 29.6211 31.6075 29.6211C31.6075 29.6211 32.099 29.6119 33.1881 29.8147C34.2773 30.0176 36.4986 30.2115 37.7495 30.6877C39.0003 31.1639 39.4564 31.2998 40.2167 31.7803C41.2986 32.4645 42.0929 33.5363 43.1274 34.2861C43.1274 34.2861 43.1776 33.2912 42.7598 32.5483C42.3421 31.8053 41.2174 30.6342 40.8892 29.5405C40.561 28.4469 40.402 26.2988 40.402 26.2988C40.402 26.2988 40.1835 28.0351 39.1497 28.7552L39.1494 28.7556Z" fill="url(#paint15_radial_293_98)"/>
</g>
<g opacity="0.2" filter="url(#filter18_f_293_98)">
<path d="M29.4277 27.218L29.2784 28.1486C29.2484 28.3007 29.2152 28.4528 29.1585 28.5969C29.1017 28.7411 29.0205 28.878 28.9057 28.9817C28.805 29.0725 28.682 29.1351 28.5586 29.1916C28.077 29.4123 27.5616 29.5586 27.0359 29.6244L27.6646 29.6818C27.7964 29.6962 27.9286 29.7122 28.0571 29.7452C28.1857 29.7782 28.311 29.8309 28.4179 29.907C28.5353 29.9926 28.6274 30.11 28.6964 30.2381C28.8335 30.4935 28.8793 30.7872 28.9048 31.0736C28.9369 31.4428 28.9395 31.8149 28.9119 32.1842C28.9367 31.937 28.9886 31.6923 29.0661 31.4563C29.206 31.0308 29.4312 30.6319 29.7345 30.3024C29.8549 30.1717 29.9873 30.0518 30.133 29.9494C30.5845 29.6345 31.1374 29.4999 31.6831 29.5721C31.1297 29.5947 30.5854 29.4257 30.142 29.0937C29.9188 28.9256 29.7242 28.7161 29.5893 28.4714C29.3797 28.088 29.3222 27.6397 29.4284 27.2158L29.4277 27.218Z" fill="url(#paint16_radial_293_98)"/>
</g>
<g opacity="0.1" filter="url(#filter19_f_293_98)">
<path d="M28.106 34.5103C27.8425 35.5133 27.6615 36.5362 27.5649 37.5688C27.4284 39.0281 27.4612 40.4977 27.3828 41.9615C27.3185 43.2036 27.1707 44.4586 27.3862 45.6835C27.489 46.2677 27.6739 46.8371 27.9335 47.3706C27.9748 47.167 28.0049 46.9613 28.0239 46.7545C28.1154 45.7613 27.9481 44.7649 27.8916 43.7692C27.7926 42.0239 28.0342 40.2773 28.1326 38.5339C28.2081 37.1935 28.1991 35.8497 28.1058 34.5105L28.106 34.5103Z" fill="black"/>
</g>
<g filter="url(#filter20_f_293_98)">
<path d="M40.1431 19.4679C39.6799 19.8899 40.3603 20.5236 40.6829 21.2682C40.8834 21.731 41.4385 22.3833 41.9752 22.279C42.379 22.2004 42.6294 21.6192 42.5913 21.21C42.5176 20.4195 41.8507 20.2346 41.3665 19.9632C40.9831 19.7481 40.4683 19.1718 40.1433 19.4683L40.1431 19.4679Z" fill="#838384"/>
</g>
<g opacity="0.2" filter="url(#filter21_f_293_98)">
<path d="M55.0036 54.0165C54.9017 54.3513 54.7497 54.6697 54.5526 54.9614C54.117 55.6067 53.4848 56.0925 52.8528 56.5403C51.7748 57.3042 50.6522 58.0052 49.6491 58.8754C48.9768 59.457 48.3644 60.1093 47.7961 60.7959C47.3104 61.3829 46.8537 61.9999 46.3002 62.522C45.7415 63.049 45.0837 63.4746 44.3749 63.7066C43.513 63.9888 42.6022 63.9751 41.772 63.7623C41.1902 63.6132 40.6228 63.3538 40.2625 62.8846C39.9006 62.4138 39.7833 61.7809 39.7415 61.1597C39.6674 60.0607 39.7987 58.9381 39.9182 57.8231C40.0176 56.8963 40.1091 55.9689 40.147 55.0441C40.213 53.362 40.1036 51.6944 39.8759 50.0584C39.8379 49.7842 39.7963 49.5082 39.8194 49.2259C39.8425 48.9435 39.9371 48.6501 40.1353 48.4322C40.3183 48.2308 40.5737 48.1117 40.8283 48.053C41.0828 47.9943 41.3408 47.9887 41.5967 47.9844C42.1995 47.9684 42.8057 47.933 43.3995 47.9857C43.7741 48.0191 44.1415 48.0875 44.5155 48.1235C45.1398 48.1835 45.787 48.152 46.4133 47.9684C47.0873 47.7709 47.7301 47.4002 48.4152 47.2985C48.6961 47.2567 48.9784 47.2614 49.2511 47.2998C49.5299 47.3388 49.8073 47.4159 50.0215 47.586C50.1843 47.7154 50.3036 47.893 50.3968 48.0823C50.5354 48.3645 50.6212 48.6758 50.6696 48.995C50.713 49.2777 50.7281 49.5691 50.8012 49.8427C50.9211 50.2925 51.1927 50.6752 51.5199 50.9866C51.847 51.2981 52.2293 51.5441 52.611 51.7866C52.9916 52.028 53.3739 52.2679 53.7802 52.4669C53.971 52.5604 54.167 52.6448 54.3491 52.7525C54.5313 52.8603 54.7011 52.9925 54.8221 53.167C54.9862 53.4038 55.0522 53.714 55.0029 54.0186" fill="url(#paint17_linear_293_98)"/>
</g>
<mask id="mask3_293_98" style="mask-type:luminance" maskUnits="userSpaceOnUse" x="40" y="44" width="20" height="21">
<path d="M59.2774 54.8184C59.4723 55.1606 58.9411 55.5442 58.6741 55.8335C58.0867 56.4704 57.2924 56.8836 56.5541 57.3373C55.2872 58.1161 53.8506 58.6019 52.6081 59.419C51.7762 59.9659 51.0382 60.6448 50.2815 61.2918C49.6341 61.8453 49.1071 62.5506 48.3895 63.0094C47.6718 63.4683 46.8805 63.8993 46.0351 64.0056C45.0105 64.1341 43.9203 63.9508 42.9717 63.542C42.3086 63.2562 41.652 62.8179 41.2658 62.2074C40.8774 61.5936 40.8245 60.8068 40.7874 60.0814C40.7216 58.7832 41.0794 57.4978 41.254 56.2096C41.3996 55.1381 41.6509 54.0796 41.7381 53.0016C41.8967 51.0431 41.571 49.0581 41.8067 47.1075C41.8827 46.4783 41.7681 45.6808 42.2377 45.2557C42.6743 44.8605 43.401 45.0158 43.9901 45.028C44.7067 45.043 45.4109 45.2315 46.1088 45.3958C46.5493 45.4993 46.9653 45.6979 47.4096 45.7836C48.1465 45.9256 48.9019 46.012 49.6519 45.9875C50.4628 45.961 51.2451 45.6028 52.0564 45.6094C52.3889 45.6122 52.7257 45.6698 53.0389 45.7808C53.3566 45.8933 53.679 46.0392 53.9221 46.2725C54.1074 46.4503 54.2285 46.6917 54.3249 46.9301C54.4688 47.2862 54.5164 47.6752 54.5749 48.0548C54.6267 48.392 54.5421 48.7554 54.6636 49.0746C55.0556 50.1029 55.8583 50.9441 56.6398 51.7188C57.0132 52.1333 57.5032 52.4759 57.961 52.7531C58.4473 53.0474 58.8967 53.2779 59.1313 53.7848C59.2727 54.1029 59.0148 54.5903 59.2776 54.8187L59.2774 54.8184Z" fill="white"/>
</mask>
<g mask="url(#mask3_293_98)">
<path d="M59.2774 54.8182C59.1338 55.1867 58.9288 55.531 58.6741 55.8333C58.112 56.5006 57.3313 56.9408 56.5541 57.3371C55.228 58.0128 53.8544 58.6058 52.608 59.4188C51.773 59.9634 51.0022 60.6028 50.2815 61.2916C49.6652 61.8807 49.0806 62.5099 48.3895 63.0092C47.6919 63.5127 46.8856 63.8777 46.0351 64.0054C45.0004 64.1607 43.9314 63.9598 42.9716 63.5418C42.2994 63.249 41.6528 62.8299 41.2657 62.2072C40.8771 61.5821 40.7884 60.8173 40.7874 60.0812C40.7856 58.7793 41.0269 57.489 41.2539 56.2094C41.4425 55.1443 41.6224 54.0768 41.7381 53.0014C41.9487 51.0455 41.9472 49.0696 41.8067 47.1073C41.7852 46.7787 41.7557 46.4469 41.8049 46.121C41.8542 45.7952 41.9881 45.4704 42.2377 45.2555C42.4684 45.0569 42.7775 44.9693 43.0817 44.9526C43.3859 44.9359 43.6889 44.9841 43.9901 45.028C44.6998 45.1317 45.4151 45.2133 46.1088 45.3958C46.5465 45.5109 46.9728 45.6658 47.4096 45.7836C48.1386 45.9807 48.9019 46.0749 49.6519 45.9875C50.4595 45.8933 51.2436 45.5897 52.0564 45.6094C52.39 45.6176 52.7205 45.6806 53.0388 45.7808C53.3634 45.8832 53.6837 46.0297 53.9221 46.2725C54.1033 46.4567 54.2297 46.6891 54.3249 46.9301C54.4662 47.2888 54.5423 47.6707 54.5749 48.0548C54.6038 48.395 54.5991 48.7391 54.6635 49.0746C54.7696 49.6262 55.0592 50.1292 55.4193 50.5602C55.7795 50.9913 56.212 51.3572 56.6396 51.7188C57.068 52.0787 57.4986 52.4375 57.9607 52.7531C58.1775 52.9013 58.4012 53.0401 58.6071 53.203C58.8129 53.3658 59.0023 53.5558 59.1309 53.7846C59.3054 54.0952 59.3588 54.4718 59.2772 54.8185L59.2774 54.8182Z" fill="url(#paint18_linear_293_98)"/>
</g>
<mask id="mask4_293_98" style="mask-type:luminance" maskUnits="userSpaceOnUse" x="40" y="44" width="20" height="21">
<path d="M59.2774 54.8184C59.4723 55.1606 58.9411 55.5442 58.6741 55.8335C58.0867 56.4704 57.2924 56.8836 56.5541 57.3373C55.2872 58.1161 53.8506 58.6019 52.6081 59.419C51.7762 59.9659 51.0382 60.6448 50.2815 61.2918C49.6341 61.8453 49.1071 62.5506 48.3895 63.0094C47.6718 63.4683 46.8805 63.8993 46.0351 64.0056C45.0105 64.1341 43.9203 63.9508 42.9717 63.542C42.3086 63.2562 41.652 62.8179 41.2658 62.2074C40.8774 61.5936 40.8245 60.8068 40.7874 60.0814C40.7216 58.7832 41.0794 57.4978 41.254 56.2096C41.3996 55.1381 41.6509 54.0796 41.7381 53.0016C41.8967 51.0431 41.571 49.0581 41.8067 47.1075C41.8827 46.4783 41.7681 45.6808 42.2377 45.2557C42.6743 44.8605 43.401 45.0158 43.9901 45.028C44.7067 45.043 45.4109 45.2315 46.1088 45.3958C46.5493 45.4993 46.9653 45.6979 47.4096 45.7836C48.1465 45.9256 48.9019 46.012 49.6519 45.9875C50.4628 45.961 51.2451 45.6028 52.0564 45.6094C52.3889 45.6122 52.7257 45.6698 53.0389 45.7808C53.3566 45.8933 53.679 46.0392 53.9221 46.2725C54.1074 46.4503 54.2285 46.6917 54.3249 46.9301C54.4688 47.2862 54.5164 47.6752 54.5749 48.0548C54.6267 48.392 54.5421 48.7554 54.6636 49.0746C55.0556 50.1029 55.8583 50.9441 56.6398 51.7188C57.0132 52.1333 57.5032 52.4759 57.961 52.7531C58.4473 53.0474 58.8967 53.2779 59.1313 53.7848C59.2727 54.1029 59.0148 54.5903 59.2776 54.8187L59.2774 54.8184Z" fill="white"/>
</mask>
<g mask="url(#mask4_293_98)">
<g filter="url(#filter22_f_293_98)">
<path d="M58.6098 54.1431C58.4772 54.4753 58.2912 54.7835 58.0591 55.0557C57.5445 55.6585 56.8315 56.0527 56.1229 56.4075C54.9118 57.0137 53.6586 57.5467 52.5196 58.2787C51.7582 58.768 51.0542 59.3426 50.3948 59.9626C49.8314 60.4924 49.2969 61.0586 48.6669 61.5067C48.0285 61.9609 47.292 62.288 46.5167 62.4022C45.5719 62.5414 44.5972 62.3608 43.7193 61.9853C43.1072 61.7235 42.516 61.349 42.1614 60.7856C41.8088 60.225 41.7265 59.5367 41.7244 58.8743C41.7216 57.7035 41.9425 56.5456 42.1507 55.3935C42.3236 54.4359 42.4881 53.4766 42.5929 52.5094C42.7835 50.751 42.7745 48.975 42.6554 47.2104C42.6355 46.9148 42.6126 46.6162 42.658 46.3235C42.7034 46.0309 42.8247 45.7393 43.0492 45.5459C43.2598 45.3644 43.5425 45.2849 43.8204 45.2704C44.0983 45.2558 44.3746 45.3008 44.6495 45.3411C45.2971 45.4364 45.9503 45.5082 46.5839 45.6716C46.9835 45.7749 47.3732 45.9141 47.7718 46.0204C48.4381 46.1982 49.1348 46.2828 49.8199 46.2038C50.5568 46.1187 51.2738 45.846 52.0157 45.8638C52.3199 45.8713 52.622 45.9281 52.9133 46.018C53.2094 46.1093 53.5024 46.2395 53.7199 46.46C53.884 46.626 53.9973 46.8357 54.0875 47.0513C54.2216 47.372 54.3088 47.7147 54.3159 48.0624C54.3234 48.4253 54.2439 48.7897 54.2931 49.1492C54.333 49.4412 54.4566 49.7165 54.6145 49.9654C54.7724 50.2143 54.9645 50.4388 55.155 50.6638C55.5228 51.0987 55.8919 51.5415 56.3532 51.8752C56.8784 52.2553 57.5019 52.4772 58.0445 52.8322C58.2062 52.938 58.3628 53.0576 58.4768 53.2135C58.5719 53.3464 58.6338 53.5002 58.657 53.662C58.6803 53.8238 58.6643 53.9888 58.6105 54.1431H58.6098Z" fill="#CD8907"/>
</g>
</g>
<mask id="mask5_293_98" style="mask-type:luminance" maskUnits="userSpaceOnUse" x="40" y="44" width="20" height="21">
<path d="M59.2774 54.8186C59.4721 55.1607 58.941 55.5446 58.6741 55.8336C58.0865 56.4707 57.2921 56.8838 56.5536 57.3376C55.2868 58.1164 53.8504 58.6048 52.6075 59.4192C51.7758 59.9662 51.038 60.6452 50.2809 61.292C49.6335 61.8456 49.1066 62.5512 48.3887 63.0095C47.6707 63.4678 46.8796 63.8992 46.0341 64.0059C45.0094 64.1347 43.9193 63.9509 42.9734 63.5423C42.3103 63.2564 41.6512 62.8179 41.2675 62.2078C40.8791 61.594 40.826 60.8073 40.7893 60.0818C40.7232 58.7835 41.0812 57.4981 41.256 56.2101C41.4014 55.1383 41.6527 54.0797 41.7401 53.0021C41.8985 51.0437 41.5731 49.0585 41.8086 47.1078C41.8821 46.4787 41.7699 45.6812 42.2396 45.2562C42.6762 44.861 43.4026 45.0186 43.9918 45.0286C44.7085 45.0439 45.4127 45.2324 46.1103 45.3964C46.551 45.4999 46.9668 45.6986 47.4112 45.7844C48.1458 45.9265 48.9034 46.0128 49.6536 45.9882C50.4646 45.9618 51.2466 45.6034 52.0581 45.6102C52.3906 45.6129 52.7273 45.6709 53.0407 45.7818C53.3583 45.8943 53.6807 46.0405 53.9239 46.2734C54.1092 46.4513 54.23 46.6926 54.3264 46.9334C54.4704 47.2897 54.5179 47.6783 54.5762 48.058C54.6281 48.3951 54.5434 48.7589 54.6651 49.0775C55.0568 50.1058 55.86 50.9471 56.6411 51.7217C57.0145 52.1361 57.5044 52.4788 57.9623 52.756C58.4483 53.0504 58.8977 53.2808 59.1327 53.7877C59.274 54.1058 59.0162 54.5934 59.2792 54.8218L59.2774 54.8186Z" fill="white"/>
</mask>
<g mask="url(#mask5_293_98)">
<g filter="url(#filter23_f_293_98)">
<path d="M58.5346 53.7693C58.3872 54.1033 58.1962 54.4145 57.9689 54.6907C57.4418 55.3316 56.73 55.773 55.98 56.056C54.7454 56.5225 53.3977 56.5851 52.1859 57.1162C51.4474 57.4399 50.7829 57.9275 50.1095 58.3887C49.5655 58.7609 49.0096 59.1199 48.4122 59.3802C47.7376 59.6746 47.0199 59.8396 46.3001 59.9558C45.8422 60.0297 45.3787 60.0835 44.9161 60.0579C44.4536 60.0323 43.9896 59.9241 43.5817 59.6883C43.2722 59.5093 42.994 59.2519 42.8285 58.918C42.6448 58.5468 42.613 58.1112 42.6174 57.6904C42.6287 56.5695 42.8686 55.4607 42.8613 54.3398C42.8549 53.3641 42.6617 52.4008 42.6061 51.4269C42.4991 49.5539 42.9012 47.6483 42.5474 45.8109C42.4911 45.5169 42.4147 45.223 42.4183 44.9226C42.4203 44.7721 42.4428 44.6217 42.4955 44.4825C42.5481 44.3434 42.6333 44.2172 42.7464 44.1293C42.8419 44.0554 42.9546 44.0105 43.0704 43.9902C43.1862 43.9698 43.3047 43.9738 43.421 43.992C43.6532 44.0282 43.8745 44.1193 44.1005 44.1866C44.7474 44.3793 45.4308 44.3751 46.088 44.5205C46.5006 44.6119 46.9002 44.7608 47.3084 44.8727C47.994 45.0575 48.7089 45.1401 49.4122 45.0575C50.1688 44.9691 50.9075 44.6945 51.668 44.7143C51.9797 44.7222 52.2892 44.7803 52.5899 44.8701C52.8906 44.9598 53.191 45.0865 53.4185 45.3162C53.5826 45.482 53.7001 45.6937 53.7961 45.9128C53.9357 46.2328 54.0329 46.5807 54.0307 46.934C54.0294 47.118 54.0013 47.3004 53.9849 47.4831C53.9685 47.6658 53.9633 47.8537 54.0069 48.0314C54.0505 48.2091 54.1426 48.3712 54.2476 48.5171C54.3527 48.6631 54.4717 48.797 54.5801 48.9401C54.8842 49.3405 55.1017 49.8073 55.3384 50.2574C55.5752 50.7075 55.8409 51.1531 56.215 51.4771C56.7243 51.9185 57.385 52.0948 57.9525 52.4433C58.119 52.5454 58.2799 52.665 58.3967 52.8287C58.4904 52.9604 58.552 53.1153 58.576 53.2793C58.6 53.4432 58.5856 53.6111 58.5341 53.7675L58.5346 53.7693Z" fill="#F5C021"/>
</g>
</g>
<g filter="url(#filter24_f_293_98)">
<path d="M42.4185 45.9865C43.1203 45.7965 43.718 46.3286 44.227 46.7303C44.5559 47.0109 45.031 46.9402 45.4347 46.9535C46.103 46.9293 46.7682 47.0656 47.437 46.9827C48.7535 46.8713 50.0438 46.5478 51.3664 46.4899C51.9984 46.4501 52.7075 46.4135 53.2533 46.7824C53.4746 46.9357 53.799 47.5836 54.0173 47.3404C53.9273 46.6596 53.4224 46.0002 52.7448 45.819C52.2145 45.7354 51.6736 45.8811 51.1402 45.834C49.55 45.7961 47.9711 45.5009 46.377 45.5855C45.2682 45.5951 44.1604 45.5437 43.0533 45.5004C42.6184 45.4115 42.4648 45.7982 42.2285 45.946" fill="url(#paint19_linear_293_98)"/>
</g>
<g opacity="0.75" filter="url(#filter25_f_293_98)">
<path d="M45.565 33.0415C45.8194 33.0021 47.3895 34.3371 47.1749 34.8352C46.9603 35.3333 46.557 35.0321 46.2685 35.0355C45.9799 35.0388 45.1908 35.3971 45.0586 35.171C44.9264 34.945 45.4076 34.417 45.6595 33.9758C45.8623 33.6205 45.3105 33.0833 45.5651 33.044L45.565 33.0415Z" fill="#7C7C7C"/>
</g>
<g opacity="0.25" filter="url(#filter26_f_293_98)">
<path d="M23.4088 24.6396C23.3834 24.332 22.9442 24.286 22.7483 24.4393C22.5829 24.569 22.4278 25.0115 22.5705 25.1846C22.8024 25.4652 23.4434 25.0615 23.4088 24.64L23.4088 24.6396Z" fill="#7C7C7C"/>
</g>
<g opacity="0.35" filter="url(#filter27_f_293_98)">
<path d="M51.8819 47.0556C51.7613 46.8195 51.5419 46.643 51.2971 46.5408C51.0522 46.4386 50.7836 46.4058 50.5186 46.408C49.9883 46.4123 49.4613 46.5502 48.9333 46.5044C48.487 46.4658 48.0635 46.2981 47.6265 46.1923C47.1772 46.0851 46.7006 46.0423 46.2544 46.1616C45.7775 46.2915 45.3567 46.6102 45.0932 47.0282C44.861 47.3966 44.7505 47.8322 44.7162 48.2664C44.6819 48.7007 44.719 49.1375 44.7629 49.5711C44.7946 49.8847 44.8302 50.1988 44.906 50.5051C44.9818 50.8114 45.0997 51.1099 45.2843 51.3652C45.55 51.7328 45.9448 51.9951 46.3705 52.1525C47.0736 52.4095 47.8472 52.396 48.541 52.1146C49.7536 51.5882 50.7797 50.6441 51.4052 49.4796C51.6291 49.0627 51.8031 48.6184 51.9155 48.1589C51.9601 47.9761 51.9952 47.79 51.9969 47.6019C51.9987 47.4138 51.9655 47.2227 51.88 47.0556H51.8819Z" fill="url(#paint20_radial_293_98)"/>
</g>
<g opacity="0.35" filter="url(#filter28_f_293_98)">
<path d="M51.8819 46.808C51.7613 46.6374 51.5419 46.5098 51.2971 46.4359C51.0522 46.362 50.7836 46.3383 50.5186 46.3399C49.9883 46.343 49.4613 46.4427 48.9333 46.4095C48.487 46.3817 48.0635 46.2604 47.6265 46.1839C47.1772 46.1065 46.7006 46.0755 46.2544 46.1618C45.7775 46.2556 45.3567 46.4861 45.0932 46.7882C44.861 47.0546 44.7505 47.3694 44.7162 47.6834C44.6819 47.9973 44.719 48.3131 44.7629 48.6265C44.7946 48.8533 44.8302 49.0803 44.906 49.3018C44.9818 49.5232 45.0997 49.739 45.2843 49.9236C45.55 50.1893 45.9448 50.3789 46.3705 50.4927C47.0736 50.6785 47.8472 50.6687 48.541 50.4653C49.7536 50.0848 50.7797 49.4023 51.4052 48.5604C51.6291 48.259 51.8031 47.9378 51.9155 47.6056C51.9601 47.4735 51.9952 47.3389 51.9969 47.203C51.9987 47.067 51.9655 46.9288 51.88 46.808H51.8819Z" fill="url(#paint21_radial_293_98)"/>
</g>
<path d="M52.8896 44.8464C52.8029 44.6099 52.6501 44.4004 52.4633 44.2316C52.2765 44.0628 52.0563 43.9334 51.8243 43.8349C51.3605 43.6378 50.856 43.5649 50.3607 43.4715L48.9622 43.198C48.4759 43.1153 47.9729 43.0626 47.4915 43.1712C47.0704 43.2661 46.6809 43.484 46.3621 43.7753C46.0433 44.0667 45.7944 44.43 45.6155 44.825C45.3002 45.517 45.201 46.2957 45.2612 47.0536C45.3062 47.6177 45.4486 48.1989 45.8203 48.6261C46.1202 48.971 46.5459 49.1863 46.9844 49.3159C47.7396 49.5393 48.5627 49.5275 49.311 49.2827C50.5554 48.8621 51.6317 48.0525 52.3808 46.9735C52.6251 46.62 52.8333 46.2349 52.9278 45.816C52.9998 45.4947 53.0023 45.1562 52.8896 44.8488V44.8464Z" fill="#020204"/>
<mask id="mask6_293_98" style="mask-type:luminance" maskUnits="userSpaceOnUse" x="45" y="43" width="8" height="7">
<path d="M52.8896 44.8464C52.8029 44.6099 52.6501 44.4004 52.4633 44.2316C52.2765 44.0628 52.0563 43.9334 51.8243 43.8349C51.3605 43.6378 50.856 43.5649 50.3607 43.4715L48.9622 43.198C48.4759 43.1153 47.9729 43.0626 47.4915 43.1712C47.0703 43.2661 46.6809 43.484 46.3621 43.7753C46.0433 44.0667 45.7944 44.43 45.6155 44.825C45.3002 45.517 45.201 46.2957 45.2612 47.0536C45.3062 47.6177 45.4486 48.1989 45.8203 48.6261C46.1202 48.971 46.5459 49.1863 46.9844 49.3159C47.7396 49.5393 48.5627 49.5275 49.311 49.2827C50.5554 48.8621 51.6317 48.0525 52.3808 46.9735C52.6251 46.62 52.8333 46.2349 52.9278 45.816C52.9998 45.4947 53.0023 45.1562 52.8896 44.8488" fill="white"/>
</mask>
<g mask="url(#mask6_293_98)">
<g filter="url(#filter29_f_293_98)">
<path d="M47.7551 42.9458C47.6383 42.9522 47.5221 42.9656 47.407 42.9861C46.6636 43.1183 45.983 43.5881 45.5995 44.238C45.3289 44.7014 45.2052 45.2359 45.2448 45.7711C45.2604 45.3979 45.3583 45.0326 45.5393 44.7063C45.8465 44.1532 46.4031 43.7359 47.0256 43.6219C47.4112 43.5516 47.8037 43.5941 48.1906 43.6421C48.5619 43.6883 48.9361 43.737 49.302 43.8162C49.8676 43.9388 50.4276 44.1269 50.9023 44.4589C51.0129 44.536 51.1165 44.6239 51.2035 44.7267C51.2905 44.8295 51.3582 44.9491 51.3843 45.0814C51.4225 45.2751 51.3672 45.4784 51.2708 45.6504C51.1744 45.8225 51.0426 45.9733 50.9023 46.1123C50.7888 46.225 50.6677 46.3338 50.5475 46.4401C51.096 46.3338 51.6513 46.1834 52.1071 45.8645C52.2999 45.7295 52.4745 45.5677 52.5891 45.3623C52.7038 45.1569 52.7524 44.9081 52.6963 44.6796C52.6583 44.5253 52.5741 44.3835 52.4687 44.2646C52.3633 44.1457 52.2374 44.0478 52.1073 43.9568C51.5332 43.5546 50.8616 43.2969 50.166 43.2134C49.7204 43.1313 49.2705 43.0621 48.8207 43.0056C48.4687 42.9614 48.1094 42.9257 47.7559 42.9456L47.7551 42.9458Z" fill="url(#paint22_radial_293_98)"/>
</g>
</g>
<mask id="mask7_293_98" style="mask-type:luminance" maskUnits="userSpaceOnUse" x="45" y="43" width="8" height="7">
<path d="M52.8896 44.8464C52.8029 44.6099 52.6501 44.4004 52.4633 44.2316C52.2765 44.0628 52.0563 43.9334 51.8243 43.8349C51.3605 43.6378 50.856 43.5649 50.3607 43.4715L48.9622 43.198C48.4759 43.1153 47.9729 43.0626 47.4915 43.1712C47.0703 43.2661 46.6809 43.484 46.3621 43.7753C46.0433 44.0667 45.7944 44.43 45.6155 44.825C45.3002 45.517 45.201 46.2957 45.2612 47.0536C45.3062 47.6177 45.4486 48.1989 45.8203 48.6261C46.1202 48.971 46.5459 49.1863 46.9844 49.3159C47.7396 49.5393 48.5627 49.5275 49.311 49.2827C50.5554 48.8621 51.6317 48.0525 52.3808 46.9735C52.6251 46.62 52.8333 46.2349 52.9278 45.816C52.9998 45.4947 53.0023 45.1562 52.8896 44.8488" fill="white"/>
</mask>
<g mask="url(#mask7_293_98)">
<g filter="url(#filter30_f_293_98)">
<path d="M47.7551 42.9458C47.6383 42.9522 47.5221 42.9656 47.407 42.9861C46.6636 43.1183 45.983 43.5881 45.5995 44.238C45.3289 44.7014 45.2052 45.2359 45.2448 45.7711C45.2604 45.3979 45.3583 45.0326 45.5393 44.7063C45.8465 44.1532 46.4031 43.7359 47.0256 43.6219C47.4112 43.5516 47.8037 43.5941 48.1906 43.6421C48.5619 43.6883 48.9361 43.737 49.302 43.8162C49.8676 43.9388 50.4276 44.1269 50.9023 44.4589C51.0129 44.536 51.1165 44.6239 51.2035 44.7267C51.2905 44.8295 51.3582 44.9491 51.3843 45.0814C51.4225 45.2751 51.3672 45.4784 51.2708 45.6504C51.1744 45.8225 51.0426 45.9733 50.9023 46.1123C50.7888 46.225 50.6677 46.3338 50.5475 46.4401C51.096 46.3338 51.6513 46.1834 52.1071 45.8645C52.2999 45.7295 52.4745 45.5677 52.5891 45.3623C52.7038 45.1569 52.7524 44.9081 52.6963 44.6796C52.6583 44.5253 52.5741 44.3835 52.4687 44.2646C52.3633 44.1457 52.2374 44.0478 52.1073 43.9568C51.5332 43.5546 50.8616 43.2969 50.166 43.2134C49.7204 43.1313 49.2705 43.0621 48.8207 43.0056C48.4687 42.9614 48.1094 42.9257 47.7559 42.9456L47.7551 42.9458Z" fill="url(#paint23_linear_293_98)"/>
</g>
</g>
<path d="M23.3926 23.2305L19.7674 27.7691C19.0106 28.7074 18.2357 29.653 17.743 30.7533C17.3197 31.6987 17.1196 32.7257 16.8293 33.7204C16.4998 34.8498 16.0525 35.9419 15.5503 37.0058C15.0865 37.988 14.5756 38.9473 14.0636 39.9055C13.6913 40.6026 13.3127 41.3152 13.1836 42.095C13.0816 42.7111 13.1407 43.3469 13.298 43.9515C13.4552 44.556 13.705 45.1319 13.9916 45.688C15.2057 48.0606 17.0272 50.1058 19.1849 51.6703C20.164 52.3803 21.213 52.9942 22.3131 53.4968C22.9091 53.7689 23.5372 54.0118 24.1923 54.0232C24.5201 54.0287 24.8508 53.975 25.1508 53.8432C25.4507 53.7115 25.7185 53.4996 25.8969 53.2247C26.1161 52.8867 26.1904 52.4668 26.1465 52.0664C26.1026 51.666 25.9462 51.2838 25.7367 50.9396C25.2225 50.0992 24.416 49.4914 23.6381 48.8888C21.9585 47.5876 20.3336 46.2152 18.779 44.767C18.3398 44.3578 17.9011 43.9362 17.5943 43.4208C17.2957 42.9187 17.1341 42.3467 17.0249 41.7728C16.725 40.1982 16.8021 38.5416 17.3376 37.0312C17.5472 36.4404 17.8239 35.8761 18.0913 35.3089C18.554 34.3255 18.9926 33.3238 19.6016 32.4238C20.3595 31.3034 21.3726 30.3544 21.9903 29.1509C22.5117 28.1354 22.7229 26.9932 22.9247 25.8693L23.3926 23.2305Z" fill="#020204"/>
<mask id="mask8_293_98" style="mask-type:luminance" maskUnits="userSpaceOnUse" x="13" y="23" width="14" height="31">
<path d="M23.2987 23.2705C23.2987 23.2705 22.2049 24.6298 21.607 25.4657C21.0091 26.3016 20.378 26.8903 19.7674 27.7687C19.1569 28.647 18.1896 29.7893 17.743 30.7528C17.2963 31.7164 17.2459 32.6886 16.8293 33.7199C16.4126 34.7512 16.0366 35.9997 15.5503 37.0053C15.064 38.0109 14.3999 39.0801 14.0636 39.9051C13.7273 40.7301 13.2474 41.1313 13.1835 42.0945C13.1197 43.0577 13.0599 43.8762 13.9916 45.6875C14.9233 47.4988 17.684 50.4021 19.1849 51.6699C20.6858 52.9377 21.1965 53.2177 22.3131 53.4964C23.4296 53.7751 25.2814 54.1386 25.8971 53.2243C26.5128 52.31 26.3838 51.9464 25.7364 50.9393C25.0891 49.9323 24.7028 49.8035 23.6379 48.8885C22.5729 47.9736 19.6453 45.7023 18.7788 44.7668C17.9122 43.8313 17.2562 44.0358 17.5941 43.4206C17.9319 42.8053 17.1213 42.5615 17.0247 41.7725C16.861 40.4347 17.2269 37.7665 17.3374 37.031C17.448 36.2956 17.5996 36.4046 18.0911 35.3086C18.5825 34.2126 18.9746 33.4611 19.6014 32.4236C20.2282 31.3861 21.4491 30.2539 21.99 29.1506C22.531 28.0474 22.7407 26.8541 22.9245 25.8691C23.1083 24.8841 23.2987 23.2705 23.2987 23.2705Z" fill="white"/>
</mask>
<g mask="url(#mask8_293_98)">
<g opacity="0.95" filter="url(#filter31_f_293_98)">
<path d="M19.9289 31.7666C19.4309 32.2254 19.0015 32.7533 18.6536 33.3343C18.0821 34.2897 17.7453 35.3626 17.3301 36.3956C17.0208 37.1647 16.6607 37.9365 16.6174 38.7641C16.5953 39.1891 16.6581 39.6137 16.6724 40.0392C16.6868 40.4646 16.6472 40.9068 16.4368 41.2783C16.2626 41.5889 15.9728 41.8331 15.6371 41.9518C16.0933 42.1054 16.4919 42.3942 16.78 42.7798C17.0189 43.1011 17.1716 43.4769 17.379 43.8188C17.5476 44.0969 17.7545 44.3544 18.0094 44.5568C18.2644 44.7593 18.5686 44.9039 18.8914 44.9452C19.1135 44.9722 19.3389 44.9508 19.552 44.8827C19.7652 44.8146 19.9611 44.7014 20.1264 44.5506C19.7141 40.6868 20.0917 36.7405 21.2297 33.0251C21.3015 32.7906 21.3769 32.5543 21.3947 32.3096C21.4125 32.065 21.3668 31.8066 21.2182 31.6117C21.1389 31.5078 21.0322 31.4253 20.9118 31.3743C20.7914 31.3233 20.6577 31.3047 20.5283 31.3203C20.3989 31.336 20.2734 31.3859 20.1684 31.4638C20.0635 31.5418 19.9795 31.6474 19.927 31.767L19.9289 31.7666Z" fill="#7C7C7C"/>
</g>
</g>
<mask id="mask9_293_98" style="mask-type:luminance" maskUnits="userSpaceOnUse" x="5" y="43" width="22" height="21">
<path d="M14.6261 43.9237C14.9689 43.7817 15.3541 43.7557 15.7187 43.823C16.0833 43.8903 16.4278 44.0479 16.7348 44.2562C17.3483 44.6731 17.8033 45.2798 18.2393 45.88C19.2401 47.2584 20.2037 48.6654 21.0767 50.1282C21.785 51.3146 22.4358 52.5397 23.2541 53.6529C23.7884 54.3795 24.391 55.0539 24.9279 55.7784C25.4648 56.5029 25.9408 57.29 26.179 58.16C26.4883 59.2905 26.3686 60.5364 25.8304 61.5776C25.4519 62.3102 24.8716 62.9384 24.1655 63.3642C23.4594 63.7901 22.6295 64.0099 21.8055 63.9791C20.4957 63.9298 19.2991 63.2753 18.0814 62.7901C15.6006 61.8021 12.9056 61.4919 10.3484 60.7224C9.56219 60.4859 8.78968 60.2061 7.99832 59.9884C7.64699 59.892 7.28923 59.8068 6.95717 59.6564C6.62512 59.506 6.31449 59.2815 6.12983 58.9672C5.98715 58.7243 5.92674 58.4381 5.93059 58.1561C5.93445 57.8742 6.00043 57.5959 6.09641 57.3309C6.28835 56.8009 6.59834 56.3211 6.80764 55.7977C7.14934 54.9429 7.21082 54.0008 7.16476 53.0813C7.1187 52.1618 6.96981 51.2507 6.90662 50.3328C6.87877 49.9227 6.86805 49.5073 6.94625 49.1039C7.02444 48.7005 7.19818 48.3059 7.49424 48.021C7.76717 47.7582 8.12943 47.6022 8.50026 47.5247C8.87109 47.4471 9.25327 47.4439 9.63224 47.4522C10.0112 47.4606 10.3906 47.4809 10.7685 47.4501C11.1464 47.4192 11.5254 47.3344 11.8546 47.1463C12.1674 46.9677 12.4232 46.7018 12.6353 46.4107C12.8474 46.1195 13.0188 45.801 13.1944 45.4865C13.3701 45.172 13.5518 44.8584 13.7818 44.5812C14.0119 44.3039 14.2938 44.0621 14.6265 43.9241" fill="white"/>
</mask>
<g mask="url(#mask9_293_98)">
<path d="M14.6261 43.9237C14.9689 43.7817 15.3541 43.7557 15.7187 43.823C16.0833 43.8903 16.4278 44.0479 16.7348 44.2562C17.3483 44.6731 17.8033 45.2798 18.2393 45.88C19.2401 47.2584 20.2037 48.6654 21.0767 50.1282C21.785 51.3146 22.4358 52.5397 23.2541 53.6529C23.7884 54.3795 24.391 55.0539 24.9279 55.7784C25.4648 56.5029 25.9408 57.29 26.179 58.16C26.4883 59.2905 26.3686 60.5364 25.8304 61.5776C25.4519 62.3102 24.8716 62.9384 24.1655 63.3642C23.4594 63.7901 22.6295 64.0099 21.8055 63.9791C20.4957 63.9298 19.2991 63.2753 18.0814 62.7901C15.6006 61.8021 12.9056 61.4919 10.3484 60.7224C9.56219 60.4859 8.78968 60.2061 7.99832 59.9884C7.64699 59.892 7.28923 59.8068 6.95717 59.6564C6.62512 59.506 6.31449 59.2815 6.12983 58.9672C5.98715 58.7243 5.92674 58.4381 5.93059 58.1561C5.93445 57.8742 6.00043 57.5959 6.09641 57.3309C6.28835 56.8009 6.59834 56.3211 6.80764 55.7977C7.14934 54.9429 7.21082 54.0008 7.16476 53.0813C7.1187 52.1618 6.96981 51.2507 6.90662 50.3328C6.87877 49.9227 6.86805 49.5073 6.94625 49.1039C7.02444 48.7005 7.19818 48.3059 7.49424 48.021C7.76717 47.7582 8.12943 47.6022 8.50026 47.5247C8.87109 47.4471 9.25327 47.4439 9.63224 47.4522C10.0112 47.4606 10.3906 47.4809 10.7685 47.4501C11.1464 47.4192 11.5254 47.3344 11.8546 47.1463C12.1674 46.9677 12.4232 46.7018 12.6353 46.4107C12.8474 46.1195 13.0188 45.801 13.1944 45.4865C13.3701 45.172 13.5518 44.8584 13.7818 44.5812C14.0119 44.3039 14.2938 44.0621 14.6265 43.9241L14.6261 43.9237Z" fill="url(#paint24_linear_293_98)"/>
<g filter="url(#filter32_f_293_98)">
<path d="M15.1666 44.5152C15.4783 44.3896 15.8294 44.3759 16.157 44.45C16.4845 44.5242 16.7889 44.6857 17.0541 44.8886C17.585 45.2986 17.9539 45.877 18.3082 46.446C19.1587 47.8241 19.9899 49.2168 20.7753 50.6378C21.3702 51.7074 21.9375 52.8 22.6684 53.7827C23.1534 54.4343 23.7068 55.0316 24.2019 55.6758C24.6969 56.32 25.138 57.0216 25.3572 57.8037C25.6391 58.8119 25.5249 59.9246 25.0369 60.8528C24.6836 61.5221 24.1504 62.0796 23.4975 62.4623C22.8429 62.8428 22.093 63.0277 21.3366 62.9953C20.1373 62.9401 19.0422 62.3411 17.9132 61.9349C15.7489 61.1495 13.4031 61.0441 11.183 60.431C10.3872 60.2151 9.61122 59.9269 8.81151 59.7253C8.4576 59.636 8.09748 59.5632 7.76136 59.4211C7.42524 59.2791 7.10861 59.0591 6.9263 58.7431C6.79069 58.5081 6.7365 58.2315 6.74485 57.9603C6.7532 57.6891 6.82197 57.4248 6.91623 57.169C7.10947 56.6619 7.41324 56.2049 7.60819 55.6961C7.90382 54.9305 7.94024 54.0886 7.8854 53.2698C7.83056 52.451 7.68831 51.6395 7.63839 50.8203C7.61611 50.454 7.61269 50.0834 7.68681 49.7243C7.76093 49.3653 7.91732 49.0174 8.17846 48.7577C8.46125 48.4771 8.85114 48.3241 9.24468 48.2642C9.63821 48.2042 10.0386 48.2303 10.4347 48.2656C10.8308 48.301 11.2284 48.3456 11.6258 48.3218C12.0232 48.298 12.4262 48.2012 12.7548 47.9775C13.0541 47.7751 13.2788 47.4797 13.4498 47.1639C13.6207 46.8481 13.7428 46.5094 13.8731 46.1748C14.0033 45.8402 14.1445 45.506 14.3491 45.2108C14.5537 44.9156 14.8281 44.6527 15.1644 44.5177" fill="#D99A03"/>
</g>
<g filter="url(#filter33_f_293_98)">
<path d="M14.8781 43.7363C15.1802 43.5865 15.5358 43.5558 15.867 43.6234C16.1982 43.6909 16.5049 43.8527 16.7659 44.0643C17.2875 44.4851 17.6185 45.0899 17.927 45.6811C18.635 47.0391 19.2944 48.4266 20.1417 49.7053C20.7565 50.631 21.4656 51.4971 22.0873 52.4203C22.9305 53.6721 23.616 55.0492 23.8988 56.5242C24.089 57.5164 24.083 58.586 23.6049 59.4818C23.29 60.07 22.7801 60.5547 22.1775 60.8545C21.5749 61.1543 20.8829 61.2789 20.2087 61.2193C19.1474 61.1257 18.1834 60.6039 17.1845 60.24C15.4117 59.5941 13.4959 59.4399 11.6715 58.9524C10.902 58.7469 10.1505 58.4822 9.36858 58.3213C9.02452 58.2493 8.67362 58.1972 8.34521 58.0731C8.0168 57.9489 7.70552 57.7436 7.53757 57.4398C7.41974 57.2261 7.37968 56.9759 7.39746 56.7335C7.41524 56.4912 7.48744 56.2549 7.58277 56.0304C7.773 55.5815 8.05407 55.17 8.20403 54.7059C8.42104 54.0238 8.33192 53.2843 8.1689 52.5878C8.00587 51.8912 7.77108 51.2076 7.69888 50.4966C7.66675 50.1799 7.66739 49.857 7.73958 49.5467C7.81178 49.2364 7.9596 48.9383 8.19161 48.7157C8.49003 48.4291 8.90798 48.2865 9.32337 48.2465C9.73876 48.2065 10.1571 48.2612 10.5702 48.3202C10.9832 48.3791 11.3988 48.4464 11.8159 48.4253C12.233 48.4043 12.6574 48.297 12.9841 48.0416C13.3072 47.7891 13.5102 47.4132 13.6268 47.0242C13.7433 46.6352 13.781 46.2285 13.8288 45.8259C13.8766 45.4232 13.9359 45.0167 14.0923 44.6414C14.2487 44.2661 14.5122 43.9202 14.8807 43.7374L14.8781 43.7363Z" fill="#F5BD0C"/>
</g>
<g filter="url(#filter34_f_293_98)">
<path d="M18.66 47.1265C19.2183 48.1361 19.5589 49.2949 20.1125 50.3131C20.6219 51.2497 21.2016 52.2142 21.7192 53.0779C21.9495 53.4625 22.4868 54.0537 23.0303 54.9711C23.5226 55.8023 24.0196 56.9627 24.2979 57.3524C24.1381 56.8961 23.8094 55.6714 23.4174 54.7982C23.0532 53.982 22.6248 53.5167 22.3619 53.0779C21.8443 52.2142 21.2871 51.4378 20.7552 50.6143C20.0215 49.4785 19.4621 48.2075 18.66 47.1267V47.1265Z" fill="url(#paint25_linear_293_98)"/>
</g>
</g>
</g>
<defs>
<filter id="filter0_f_293_98" x="24.1548" y="17.135" width="15.4479" height="9.84624" filterUnits="userSpaceOnUse" color-interpolation-filters="sRGB">
<feFlood flood-opacity="0" result="BackgroundImageFix"/>
<feBlend mode="normal" in="SourceGraphic" in2="BackgroundImageFix" result="shape"/>
<feGaussianBlur stdDeviation="0.436168" result="effect1_foregroundBlur_293_98"/>
</filter>
<filter id="filter1_f_293_98" x="24.5248" y="17.0264" width="13.8809" height="6.72548" filterUnits="userSpaceOnUse" color-interpolation-filters="sRGB">
<feFlood flood-opacity="0" result="BackgroundImageFix"/>
<feBlend mode="normal" in="SourceGraphic" in2="BackgroundImageFix" result="shape"/>
<feGaussianBlur stdDeviation="0.191623" result="effect1_foregroundBlur_293_98"/>
</filter>
<filter id="filter2_f_293_98" x="24.3451" y="13.476" width="14.0825" height="7.68139" filterUnits="userSpaceOnUse" color-interpolation-filters="sRGB">
<feFlood flood-opacity="0" result="BackgroundImageFix"/>
<feBlend mode="normal" in="SourceGraphic" in2="BackgroundImageFix" result="shape"/>
<feGaussianBlur stdDeviation="0.291564" result="effect1_foregroundBlur_293_98"/>
</filter>
<filter id="filter3_f_293_98" x="34.5176" y="2.28652" width="5.24691" height="5.06271" filterUnits="userSpaceOnUse" color-interpolation-filters="sRGB">
<feFlood flood-opacity="0" result="BackgroundImageFix"/>
<feBlend mode="normal" in="SourceGraphic" in2="BackgroundImageFix" result="shape"/>
<feGaussianBlur stdDeviation="0.429496" result="effect1_foregroundBlur_293_98"/>
</filter>
<filter id="filter4_f_293_98" x="34.7402" y="13.0476" width="1.02367" height="0.825187" filterUnits="userSpaceOnUse" color-interpolation-filters="sRGB">
<feFlood flood-opacity="0" result="BackgroundImageFix"/>
<feBlend mode="normal" in="SourceGraphic" in2="BackgroundImageFix" result="shape"/>
<feGaussianBlur stdDeviation="0.0533428" result="effect1_foregroundBlur_293_98"/>
</filter>
<filter id="filter5_f_293_98" x="34.6308" y="12.0052" width="1.93949" height="1.91788" filterUnits="userSpaceOnUse" color-interpolation-filters="sRGB">
<feFlood flood-opacity="0" result="BackgroundImageFix"/>
<feBlend mode="normal" in="SourceGraphic" in2="BackgroundImageFix" result="shape"/>
<feGaussianBlur stdDeviation="0.111184" result="effect1_foregroundBlur_293_98"/>
</filter>
<filter id="filter6_f_293_98" x="35.2526" y="8.10651" width="3.41369" height="3.16003" filterUnits="userSpaceOnUse" color-interpolation-filters="sRGB">
<feFlood flood-opacity="0" result="BackgroundImageFix"/>
<feBlend mode="normal" in="SourceGraphic" in2="BackgroundImageFix" result="shape"/>
<feGaussianBlur stdDeviation="0.0317057" result="effect1_foregroundBlur_293_98"/>
</filter>
<filter id="filter7_f_293_98" x="26.4071" y="8.53054" width="3.18856" height="2.81637" filterUnits="userSpaceOnUse" color-interpolation-filters="sRGB">
<feFlood flood-opacity="0" result="BackgroundImageFix"/>
<feBlend mode="normal" in="SourceGraphic" in2="BackgroundImageFix" result="shape"/>
<feGaussianBlur stdDeviation="0.0289208" result="effect1_foregroundBlur_293_98"/>
</filter>
<filter id="filter8_f_293_98" x="26.6165" y="12.2109" width="1.56374" height="2.2438" filterUnits="userSpaceOnUse" color-interpolation-filters="sRGB">
<feFlood flood-opacity="0" result="BackgroundImageFix"/>
<feBlend mode="normal" in="SourceGraphic" in2="BackgroundImageFix" result="shape"/>
<feGaussianBlur stdDeviation="0.109899" result="effect1_foregroundBlur_293_98"/>
</filter>
<filter id="filter9_f_293_98" x="27.696" y="19.2237" width="3.74473" height="2.86363" filterUnits="userSpaceOnUse" color-interpolation-filters="sRGB">
<feFlood flood-opacity="0" result="BackgroundImageFix"/>
<feBlend mode="normal" in="SourceGraphic" in2="BackgroundImageFix" result="shape"/>
<feGaussianBlur stdDeviation="0.192591" result="effect1_foregroundBlur_293_98"/>
</filter>
<filter id="filter10_f_293_98" x="25.0964" y="15.8364" width="11.9824" height="5.56018" filterUnits="userSpaceOnUse" color-interpolation-filters="sRGB">
<feFlood flood-opacity="0" result="BackgroundImageFix"/>
<feBlend mode="normal" in="SourceGraphic" in2="BackgroundImageFix" result="shape"/>
<feGaussianBlur stdDeviation="0.162385" result="effect1_foregroundBlur_293_98"/>
</filter>
<filter id="filter11_f_293_98" x="29.988" y="16.0073" width="3.4387" height="4.07615" filterUnits="userSpaceOnUse" color-interpolation-filters="sRGB">
<feFlood flood-opacity="0" result="BackgroundImageFix"/>
<feBlend mode="normal" in="SourceGraphic" in2="BackgroundImageFix" result="shape"/>
<feGaussianBlur stdDeviation="0.18188" result="effect1_foregroundBlur_293_98"/>
</filter>
<filter id="filter12_f_293_98" x="31.2165" y="14.9343" width="1.30776" height="0.730979" filterUnits="userSpaceOnUse" color-interpolation-filters="sRGB">
<feFlood flood-opacity="0" result="BackgroundImageFix"/>
<feBlend mode="normal" in="SourceGraphic" in2="BackgroundImageFix" result="shape"/>
<feGaussianBlur stdDeviation="0.0235651" result="effect1_foregroundBlur_293_98"/>
</filter>
<filter id="filter13_f_293_98" x="28.3492" y="15.0447" width="0.581443" height="0.63137" filterUnits="userSpaceOnUse" color-interpolation-filters="sRGB">
<feFlood flood-opacity="0" result="BackgroundImageFix"/>
<feBlend mode="normal" in="SourceGraphic" in2="BackgroundImageFix" result="shape"/>
<feGaussianBlur stdDeviation="0.0235651" result="effect1_foregroundBlur_293_98"/>
</filter>
<filter id="filter14_f_293_98" x="36.5279" y="16.7043" width="1.52876" height="1.80683" filterUnits="userSpaceOnUse" color-interpolation-filters="sRGB">
<feFlood flood-opacity="0" result="BackgroundImageFix"/>
<feBlend mode="normal" in="SourceGraphic" in2="BackgroundImageFix" result="shape"/>
<feGaussianBlur stdDeviation="0.073168" result="effect1_foregroundBlur_293_98"/>
</filter>
<filter id="filter15_f_293_98" x="42.5774" y="29.4141" width="7.19082" height="18.5279" filterUnits="userSpaceOnUse" color-interpolation-filters="sRGB">
<feFlood flood-opacity="0" result="BackgroundImageFix"/>
<feBlend mode="normal" in="SourceGraphic" in2="BackgroundImageFix" result="shape"/>
<feGaussianBlur stdDeviation="0.292242" result="effect1_foregroundBlur_293_98"/>
</filter>
<filter id="filter16_f_293_98" x="19.8311" y="26.5658" width="8.24127" height="7.74872" filterUnits="userSpaceOnUse" color-interpolation-filters="sRGB">
<feFlood flood-opacity="0" result="BackgroundImageFix"/>
<feBlend mode="normal" in="SourceGraphic" in2="BackgroundImageFix" result="shape"/>
<feGaussianBlur stdDeviation="0.147995" result="effect1_foregroundBlur_293_98"/>
</filter>
<filter id="filter17_f_293_98" x="31.12" y="25.8112" width="12.4969" height="8.96247" filterUnits="userSpaceOnUse" color-interpolation-filters="sRGB">
<feFlood flood-opacity="0" result="BackgroundImageFix"/>
<feBlend mode="normal" in="SourceGraphic" in2="BackgroundImageFix" result="shape"/>
<feGaussianBlur stdDeviation="0.243791" result="effect1_foregroundBlur_293_98"/>
</filter>
<filter id="filter18_f_293_98" x="26.6996" y="26.8795" width="5.31989" height="5.64094" filterUnits="userSpaceOnUse" color-interpolation-filters="sRGB">
<feFlood flood-opacity="0" result="BackgroundImageFix"/>
<feBlend mode="normal" in="SourceGraphic" in2="BackgroundImageFix" result="shape"/>
<feGaussianBlur stdDeviation="0.168169" result="effect1_foregroundBlur_293_98"/>
</filter>
<filter id="filter19_f_293_98" x="26.6538" y="33.8907" width="2.14901" height="14.0994" filterUnits="userSpaceOnUse" color-interpolation-filters="sRGB">
<feFlood flood-opacity="0" result="BackgroundImageFix"/>
<feBlend mode="normal" in="SourceGraphic" in2="BackgroundImageFix" result="shape"/>
<feGaussianBlur stdDeviation="0.309774" result="effect1_foregroundBlur_293_98"/>
</filter>
<filter id="filter20_f_293_98" x="39.6004" y="18.9992" width="3.38072" height="3.67686" filterUnits="userSpaceOnUse" color-interpolation-filters="sRGB">
<feFlood flood-opacity="0" result="BackgroundImageFix"/>
<feBlend mode="normal" in="SourceGraphic" in2="BackgroundImageFix" result="shape"/>
<feGaussianBlur stdDeviation="0.193019" result="effect1_foregroundBlur_293_98"/>
</filter>
<filter id="filter21_f_293_98" x="38.7609" y="46.3099" width="17.2171" height="18.5696" filterUnits="userSpaceOnUse" color-interpolation-filters="sRGB">
<feFlood flood-opacity="0" result="BackgroundImageFix"/>
<feBlend mode="normal" in="SourceGraphic" in2="BackgroundImageFix" result="shape"/>
<feGaussianBlur stdDeviation="0.479548" result="effect1_foregroundBlur_293_98"/>
</filter>
<filter id="filter22_f_293_98" x="39.6768" y="43.22" width="21.0382" height="21.2768" filterUnits="userSpaceOnUse" color-interpolation-filters="sRGB">
<feFlood flood-opacity="0" result="BackgroundImageFix"/>
<feBlend mode="normal" in="SourceGraphic" in2="BackgroundImageFix" result="shape"/>
<feGaussianBlur stdDeviation="1.0238" result="effect1_foregroundBlur_293_98"/>
</filter>
<filter id="filter23_f_293_98" x="40.8048" y="42.3631" width="19.396" height="19.3148" filterUnits="userSpaceOnUse" color-interpolation-filters="sRGB">
<feFlood flood-opacity="0" result="BackgroundImageFix"/>
<feBlend mode="normal" in="SourceGraphic" in2="BackgroundImageFix" result="shape"/>
<feGaussianBlur stdDeviation="0.806721" result="effect1_foregroundBlur_293_98"/>
</filter>
<filter id="filter24_f_293_98" x="42.0233" y="45.2821" width="12.1992" height="2.31769" filterUnits="userSpaceOnUse" color-interpolation-filters="sRGB">
<feFlood flood-opacity="0" result="BackgroundImageFix"/>
<feBlend mode="normal" in="SourceGraphic" in2="BackgroundImageFix" result="shape"/>
<feGaussianBlur stdDeviation="0.102615" result="effect1_foregroundBlur_293_98"/>
</filter>
<filter id="filter25_f_293_98" x="44.0539" y="32.0584" width="4.12311" height="4.16926" filterUnits="userSpaceOnUse" color-interpolation-filters="sRGB">
<feFlood flood-opacity="0" result="BackgroundImageFix"/>
<feBlend mode="normal" in="SourceGraphic" in2="BackgroundImageFix" result="shape"/>
<feGaussianBlur stdDeviation="0.491044" result="effect1_foregroundBlur_293_98"/>
</filter>
<filter id="filter26_f_293_98" x="22.2402" y="24.0799" width="1.44414" height="1.47209" filterUnits="userSpaceOnUse" color-interpolation-filters="sRGB">
<feFlood flood-opacity="0" result="BackgroundImageFix"/>
<feBlend mode="normal" in="SourceGraphic" in2="BackgroundImageFix" result="shape"/>
<feGaussianBlur stdDeviation="0.137066" result="effect1_foregroundBlur_293_98"/>
</filter>
<filter id="filter27_f_293_98" x="43.4842" y="44.8713" width="9.73137" height="8.68315" filterUnits="userSpaceOnUse" color-interpolation-filters="sRGB">
<feFlood flood-opacity="0" result="BackgroundImageFix"/>
<feBlend mode="normal" in="SourceGraphic" in2="BackgroundImageFix" result="shape"/>
<feGaussianBlur stdDeviation="0.609264" result="effect1_foregroundBlur_293_98"/>
</filter>
<filter id="filter28_f_293_98" x="44.2303" y="45.6374" width="8.23929" height="5.46061" filterUnits="userSpaceOnUse" color-interpolation-filters="sRGB">
<feFlood flood-opacity="0" result="BackgroundImageFix"/>
<feBlend mode="normal" in="SourceGraphic" in2="BackgroundImageFix" result="shape"/>
<feGaussianBlur stdDeviation="0.236245" result="effect1_foregroundBlur_293_98"/>
</filter>
<filter id="filter29_f_293_98" x="44.7984" y="42.5008" width="8.36039" height="4.37833" filterUnits="userSpaceOnUse" color-interpolation-filters="sRGB">
<feFlood flood-opacity="0" result="BackgroundImageFix"/>
<feBlend mode="normal" in="SourceGraphic" in2="BackgroundImageFix" result="shape"/>
<feGaussianBlur stdDeviation="0.219584" result="effect1_foregroundBlur_293_98"/>
</filter>
<filter id="filter30_f_293_98" x="44.7984" y="42.5008" width="8.36039" height="4.37833" filterUnits="userSpaceOnUse" color-interpolation-filters="sRGB">
<feFlood flood-opacity="0" result="BackgroundImageFix"/>
<feBlend mode="normal" in="SourceGraphic" in2="BackgroundImageFix" result="shape"/>
<feGaussianBlur stdDeviation="0.219584" result="effect1_foregroundBlur_293_98"/>
</filter>
<filter id="filter31_f_293_98" x="15.1521" y="30.8299" width="6.73125" height="14.6116" filterUnits="userSpaceOnUse" color-interpolation-filters="sRGB">
<feFlood flood-opacity="0" result="BackgroundImageFix"/>
<feBlend mode="normal" in="SourceGraphic" in2="BackgroundImageFix" result="shape"/>
<feGaussianBlur stdDeviation="0.242506" result="effect1_foregroundBlur_293_98"/>
</filter>
<filter id="filter32_f_293_98" x="5.06276" y="42.7235" width="22.1272" height="21.9568" filterUnits="userSpaceOnUse" color-interpolation-filters="sRGB">
<feFlood flood-opacity="0" result="BackgroundImageFix"/>
<feBlend mode="normal" in="SourceGraphic" in2="BackgroundImageFix" result="shape"/>
<feGaussianBlur stdDeviation="0.840631" result="effect1_foregroundBlur_293_98"/>
</filter>
<filter id="filter33_f_293_98" x="6.3587" y="42.5546" width="18.6915" height="19.714" filterUnits="userSpaceOnUse" color-interpolation-filters="sRGB">
<feFlood flood-opacity="0" result="BackgroundImageFix"/>
<feBlend mode="normal" in="SourceGraphic" in2="BackgroundImageFix" result="shape"/>
<feGaussianBlur stdDeviation="0.517366" result="effect1_foregroundBlur_293_98"/>
</filter>
<filter id="filter34_f_293_98" x="18.5015" y="46.9679" width="5.95487" height="10.5431" filterUnits="userSpaceOnUse" color-interpolation-filters="sRGB">
<feFlood flood-opacity="0" result="BackgroundImageFix"/>
<feBlend mode="normal" in="SourceGraphic" in2="BackgroundImageFix" result="shape"/>
<feGaussianBlur stdDeviation="0.0792644" result="effect1_foregroundBlur_293_98"/>
</filter>
<radialGradient id="paint0_radial_293_98" cx="0" cy="0" r="1" gradientUnits="userSpaceOnUse" gradientTransform="translate(827.511 1206.94) rotate(-2.41003) scale(53.317 130.501)">
<stop stop-color="#FEFEFC"/>
<stop offset="0.757" stop-color="#FEFEFC"/>
<stop offset="1" stop-color="#D4D4D4"/>
</radialGradient>
<radialGradient id="paint1_radial_293_98" cx="0" cy="0" r="1" gradientUnits="userSpaceOnUse" gradientTransform="translate(1485.41 1264.07) rotate(-1.81001) scale(95.4562 137.943)">
<stop stop-color="#FEFEFC"/>
<stop offset="0.757" stop-color="#FEFEFC"/>
<stop offset="1" stop-color="#D4D4D4"/>
</radialGradient>
<radialGradient id="paint2_radial_293_98" cx="0" cy="0" r="1" gradientUnits="userSpaceOnUse" gradientTransform="translate(1584.63 -416.992) rotate(-36.0085) scale(87.4537 58.0153)">
<stop stop-color="#020204"/>
<stop offset="0.734" stop-color="#020204"/>
<stop offset="1" stop-color="#5C5C5C"/>
</radialGradient>
<linearGradient id="paint3_linear_293_98" x1="487.77" y1="207.801" x2="497.639" y2="219.661" gradientUnits="userSpaceOnUse">
<stop stop-color="#949494" stop-opacity="0.392"/>
<stop offset="0.5" stop-color="#949494"/>
<stop offset="1" stop-color="#949494" stop-opacity="0.392"/>
</linearGradient>
<linearGradient id="paint4_linear_293_98" x1="939.927" y1="895.824" x2="1118.36" y2="1042.39" gradientUnits="userSpaceOnUse">
<stop stop-color="#747474"/>
<stop offset="0.125" stop-color="#8C8C8C"/>
<stop offset="0.25" stop-color="#A4A4A4"/>
<stop offset="0.5" stop-color="#D4D4D4"/>
<stop offset="0.619" stop-color="#D4D4D4"/>
<stop offset="1" stop-color="#7C7C7C"/>
</linearGradient>
<linearGradient id="paint5_linear_293_98" x1="86.2959" y1="328.344" x2="129.519" y2="372.565" gradientUnits="userSpaceOnUse">
<stop stop-color="#646464" stop-opacity="0"/>
<stop offset="0.306" stop-color="#646464" stop-opacity="0.583"/>
<stop offset="0.47" stop-color="#646464"/>
<stop offset="0.728" stop-color="#646464" stop-opacity="0.257"/>
<stop offset="1" stop-color="#646464" stop-opacity="0"/>
</linearGradient>
<linearGradient id="paint6_linear_293_98" x1="-52.7325" y1="296.669" x2="-16.6674" y2="336.187" gradientUnits="userSpaceOnUse">
<stop stop-color="#646464" stop-opacity="0"/>
<stop offset="0.306" stop-color="#646464" stop-opacity="0.583"/>
<stop offset="0.47" stop-color="#646464"/>
<stop offset="0.728" stop-color="#646464" stop-opacity="0.257"/>
<stop offset="1" stop-color="#646464" stop-opacity="0"/>
</linearGradient>
<linearGradient id="paint7_linear_293_98" x1="211.254" y1="250.695" x2="223.534" y2="264.377" gradientUnits="userSpaceOnUse">
<stop stop-color="#757574" stop-opacity="0"/>
<stop offset="0.263" stop-color="#757574"/>
<stop offset="0.5" stop-color="#757574"/>
<stop offset="1" stop-color="#757574" stop-opacity="0"/>
</linearGradient>
<radialGradient id="paint8_radial_293_98" cx="0" cy="0" r="1" gradientUnits="userSpaceOnUse" gradientTransform="translate(3925.15 -633.632) rotate(-22.428) scale(412.045 143.152)">
<stop stop-color="#D2940A"/>
<stop offset="0.751" stop-color="#D89C08"/>
<stop offset="0.866" stop-color="#B67E07"/>
<stop offset="1" stop-color="#946106"/>
</radialGradient>
<linearGradient id="paint9_linear_293_98" x1="630.322" y1="1045.54" x2="1359.92" y2="1034.22" gradientUnits="userSpaceOnUse">
<stop stop-color="#AD780A"/>
<stop offset="0.12" stop-color="#D89E08"/>
<stop offset="0.255" stop-color="#EDB80B"/>
<stop offset="0.392" stop-color="#EBC80D"/>
<stop offset="0.527" stop-color="#F5D838"/>
<stop offset="0.769" stop-color="#F6D811"/>
<stop offset="1" stop-color="#F5CD31"/>
</linearGradient>
<radialGradient id="paint10_radial_293_98" cx="0" cy="0" r="1" gradientUnits="userSpaceOnUse" gradientTransform="translate(125.515 69.7577) scale(3.91947 1.19993)">
<stop stop-color="#3A2903"/>
<stop offset="0.555" stop-color="#735208"/>
<stop offset="1" stop-color="#AC8C04"/>
</radialGradient>
<radialGradient id="paint11_radial_293_98" cx="0" cy="0" r="1" gradientUnits="userSpaceOnUse" gradientTransform="translate(59.1516 100.228) scale(0.74787 0.886562)">
<stop stop-color="#3A2903"/>
<stop offset="0.555" stop-color="#735208"/>
<stop offset="1" stop-color="#AC8C04"/>
</radialGradient>
<linearGradient id="paint12_linear_293_98" x1="307.646" y1="254.616" x2="308.422" y2="258.644" gradientUnits="userSpaceOnUse">
<stop stop-color="#F5CE2D"/>
<stop offset="1" stop-color="#D79B08"/>
</linearGradient>
<radialGradient id="paint13_radial_293_98" cx="0" cy="0" r="1" gradientUnits="userSpaceOnUse" gradientTransform="translate(852.704 43.0123) rotate(-9.34942) scale(108.736 46.6404)">
<stop stop-color="#C8C8C8"/>
<stop offset="1" stop-color="#797978"/>
</radialGradient>
<radialGradient id="paint14_radial_293_98" cx="0" cy="0" r="1" gradientUnits="userSpaceOnUse" gradientTransform="translate(-1704.81 1232.28) rotate(180) scale(146.338 149.645)">
<stop/>
<stop offset="1" stop-opacity="0.25"/>
</radialGradient>
<radialGradient id="paint15_radial_293_98" cx="0" cy="0" r="1" gradientUnits="userSpaceOnUse" gradientTransform="translate(3566.16 1466.67) scale(315.593 167.007)">
<stop/>
<stop offset="1" stop-opacity="0.25"/>
</radialGradient>
<radialGradient id="paint16_radial_293_98" cx="0" cy="0" r="1" gradientUnits="userSpaceOnUse" gradientTransform="translate(1245.69 1220.98) scale(50.3994 57.6126)">
<stop/>
<stop offset="1" stop-opacity="0.25"/>
</radialGradient>
<linearGradient id="paint17_linear_293_98" x1="472.465" y1="5440.66" x2="539.232" y2="5898.51" gradientUnits="userSpaceOnUse">
<stop/>
<stop offset="1" stop-opacity="0"/>
</linearGradient>
<linearGradient id="paint18_linear_293_98" x1="8230.54" y1="7144.6" x2="9161.81" y2="5680.63" gradientUnits="userSpaceOnUse">
<stop stop-color="#3E2A06"/>
<stop offset="1" stop-color="#AD780A"/>
</linearGradient>
<linearGradient id="paint19_linear_293_98" x1="574.656" y1="597.771" x2="574.214" y2="622.336" gradientUnits="userSpaceOnUse">
<stop stop-color="#F3CD0C"/>
<stop offset="1" stop-color="#F3CD0C" stop-opacity="0"/>
</linearGradient>
<radialGradient id="paint20_radial_293_98" cx="0" cy="0" r="1" gradientUnits="userSpaceOnUse" gradientTransform="translate(2727.55 3552.21) rotate(15) scale(166.422 149.589)">
<stop stop-color="#110800"/>
<stop offset="0.591" stop-color="#A65A00" stop-opacity="0.8"/>
<stop offset="1" stop-color="#FF921E" stop-opacity="0"/>
</radialGradient>
<radialGradient id="paint21_radial_293_98" cx="0" cy="0" r="1" gradientUnits="userSpaceOnUse" gradientTransform="translate(2727.55 2580.77) rotate(10.9628) scale(163.739 109.913)">
<stop stop-color="#110800"/>
<stop offset="0.591" stop-color="#A65A00" stop-opacity="0.8"/>
<stop offset="1" stop-color="#FF921E" stop-opacity="0"/>
</radialGradient>
<radialGradient id="paint22_radial_293_98" cx="0" cy="0" r="1" gradientUnits="userSpaceOnUse" gradientTransform="translate(1016.42 636.632) rotate(23.5217) scale(60.3754 13.053)">
<stop stop-color="#7C7C7C"/>
<stop offset="1" stop-color="#7C7C7C" stop-opacity="0.33"/>
</radialGradient>
<linearGradient id="paint23_linear_293_98" x1="2727.56" y1="1020.75" x2="2749.87" y2="1018.76" gradientUnits="userSpaceOnUse">
<stop stop-color="#7C7C7C"/>
<stop offset="1" stop-color="#7C7C7C" stop-opacity="0.33"/>
</linearGradient>
<linearGradient id="paint24_linear_293_98" x1="2519.88" y1="6133.19" x2="3478.71" y2="7759.57" gradientUnits="userSpaceOnUse">
<stop stop-color="#B98309"/>
<stop offset="1" stop-color="#382605"/>
</linearGradient>
<linearGradient id="paint25_linear_293_98" x1="982.956" y1="3342.17" x2="1168.26" y2="3534.48" gradientUnits="userSpaceOnUse">
<stop stop-color="#EBC40C"/>
<stop offset="1" stop-color="#EBC40C" stop-opacity="0"/>
</linearGradient>
<clipPath id="clip0_293_98">
<rect width="64" height="64" fill="white"/>
</clipPath>
</defs>
</svg>
